{
.appVersion = "895";
DisplayStrings = (
"",
W,
"BECKY TOLD HER FRIENDS TO GO DIE SOMEWHERE"
);
copyright = "Copyright 2016 [No one yet]. SIL OFL License v1.1, reserved name \"Barlow\"";
date = "2016-07-12 00:27:02 +0000";
designer = "Jeremy Tribby";
designerURL = "http://tribby.com/";
familyName = Barlow;
fontMaster = (
{
ascender = 800;
capHeight = 700;
customParameters = (
{
name = paramArea;
value = "400";
},
{
name = paramDepth;
value = "10";
},
{
name = paramOver;
value = "0";
}
);
descender = -200;
id = "262880E7-CFE1-4BDA-902E-E24798F3240A";
userData = {
GSOffsetHorizontal = 49;
GSOffsetMakeStroke = 1;
GSOffsetVertical = 48;
noodleExtremesAndInflections = 0;
noodleRemoveOverlap = 1;
noodleThickness = "50.0";
};
verticalStems = (
120
);
weight = Light;
weightValue = 23;
xHeight = 500;
},
{
ascender = 800;
capHeight = 700;
customParameters = (
{
name = paramArea;
value = "400";
},
{
name = paramDepth;
value = "10";
},
{
name = paramOver;
value = "0";
}
);
descender = -200;
id = "8841D1CF-9B01-449C-9B26-F87B28F18584";
userData = {
GSOffsetHorizontal = 49;
GSOffsetMakeStroke = 1;
GSOffsetVertical = 48;
noodleExtremesAndInflections = 0;
noodleRemoveOverlap = 1;
noodleThickness = "50.0";
};
verticalStems = (
106
);
weight = SemiLight;
weightValue = 106;
xHeight = 500;
},
{
ascender = 800;
capHeight = 700;
customParameters = (
{
name = paramArea;
value = "220";
},
{
name = paramDepth;
value = "8";
},
{
name = paramOver;
value = "3";
}
);
descender = -200;
id = "59CB0402-E5A9-408B-857A-05EE50EAFC2E";
userData = {
GSOffsetHorizontal = 114;
GSOffsetMakeStroke = 1;
GSOffsetVertical = 0;
noodleExtremesAndInflections = 1;
noodleRemoveOverlap = 1;
noodleThickness = "50.0";
};
verticalStems = (
202
);
weight = Bold;
weightValue = 203;
xHeight = 500;
}
);
glyphs = (
{
color = 1;
glyphname = A;
lastChange = "2016-10-07 07:46:13 +0000";
layers = (
{
layerId = "8841D1CF-9B01-449C-9B26-F87B28F18584";
paths = (
{
closed = 1;
nodes = (
"135 0 LINE",
"226 419 LINE",
"317 0 LINE",
"425 0 LINE",
"271 700 LINE",
"181 700 LINE",
"27 0 LINE"
);
},
{
closed = 1;
nodes = (
"368 93 LINE",
"368 195 LINE",
"85 195 LINE",
"85 93 LINE"
);
}
);
width = 450;
},
{
layerId = "59CB0402-E5A9-408B-857A-05EE50EAFC2E";
paths = (
{
closed = 1;
nodes = (
"301 0 LINE",
"359 432 LINE",
"417 0 LINE",
"632 0 LINE",
"465 700 LINE",
"253 700 LINE",
"86 0 LINE"
);
},
{
closed = 1;
nodes = (
"509 75 LINE",
"509 203 LINE",
"209 203 LINE",
"209 75 LINE"
);
}
);
width = 718;
},
{
layerId = "262880E7-CFE1-4BDA-902E-E24798F3240A";
paths = (
{
closed = 1;
nodes = (
"81 0 LINE",
"225 656 LINE",
"369 0 LINE",
"391 0 LINE",
"236 700 LINE",
"214 700 LINE",
"59 0 LINE"
);
},
{
closed = 1;
nodes = (
"338 145 LINE",
"338 166 LINE",
"114 166 LINE",
"114 145 LINE"
);
}
);
width = 450;
}
);
unicode = 0041;
},
{
color = 1;
glyphname = B;
lastChange = "2016-10-07 07:45:38 +0000";
layers = (
{
layerId = "8841D1CF-9B01-449C-9B26-F87B28F18584";
paths = (
{
closed = 1;
nodes = (
"163 313 LINE",
"235 313 LINE SMOOTH",
"300 313 OFFCURVE",
"343 271 OFFCURVE",
"343 208 CURVE SMOOTH",
"343 145 OFFCURVE",
"300 103 OFFCURVE",
"235 103 CURVE SMOOTH",
"163 103 LINE"
);
},
{
closed = 1;
nodes = (
"163 597 LINE",
"235 597 LINE SMOOTH",
"300 597 OFFCURVE",
"343 558 OFFCURVE",
"343 499 CURVE SMOOTH",
"343 439 OFFCURVE",
"300 399 OFFCURVE",
"235 399 CURVE",
"163 399 LINE"
);
},
{
closed = 1;
nodes = (
"235 313 LINE SMOOTH",
"362 313 OFFCURVE",
"446 388 OFFCURVE",
"446 505 CURVE SMOOTH",
"446 621 OFFCURVE",
"363 700 OFFCURVE",
"239 700 CURVE SMOOTH",
"57 700 LINE",
"57 313 LINE"
);
},
{
closed = 1;
nodes = (
"239 0 LINE SMOOTH",
"362 0 OFFCURVE",
"446 83 OFFCURVE",
"446 203 CURVE SMOOTH",
"446 323 OFFCURVE",
"363 399 OFFCURVE",
"235 399 CURVE",
"57 399 LINE",
"57 0 LINE"
);
}
);
width = 499;
},
{
layerId = "59CB0402-E5A9-408B-857A-05EE50EAFC2E";
paths = (
{
closed = 1;
nodes = (
"340 278 LINE",
"380 278 LINE SMOOTH",
"410 278 OFFCURVE",
"428 261 OFFCURVE",
"428 233 CURVE SMOOTH",
"428 205 OFFCURVE",
"409 188 OFFCURVE",
"379 188 CURVE SMOOTH",
"340 188 LINE"
);
},
{
closed = 1;
nodes = (
"340 552 LINE",
"379 552 LINE",
"409 552 OFFCURVE",
"428 535 OFFCURVE",
"428 507 CURVE SMOOTH",
"428 479 OFFCURVE",
"409 462 OFFCURVE",
"379 462 CURVE",
"340 462 LINE"
);
},
{
closed = 1;
nodes = (
"380 324 LINE SMOOTH",
"536 324 OFFCURVE",
"629 417 OFFCURVE",
"629 531 CURVE SMOOTH",
"629 658 OFFCURVE",
"515 720 OFFCURVE",
"380 720 CURVE SMOOTH",
"128 720 LINE",
"128 324 LINE"
);
},
{
closed = 1;
nodes = (
"409 0 LINE SMOOTH",
"553 0 OFFCURVE",
"640 87 OFFCURVE",
"640 201 CURVE SMOOTH",
"640 350 OFFCURVE",
"492 422 OFFCURVE",
"379 422 CURVE",
"128 422 LINE",
"128 0 LINE"
);
}
);
width = 740;
},
{
layerId = "262880E7-CFE1-4BDA-902E-E24798F3240A";
paths = (
{
closed = 1;
nodes = (
"122 351 LINE",
"236 351 LINE SMOOTH",
"338 351 OFFCURVE",
"400 288 OFFCURVE",
"400 186 CURVE SMOOTH",
"400 84 OFFCURVE",
"338 22 OFFCURVE",
"236 22 CURVE SMOOTH",
"122 22 LINE"
);
},
{
closed = 1;
nodes = (
"122 679 LINE",
"236 679 LINE SMOOTH",
"338 679 OFFCURVE",
"400 618 OFFCURVE",
"400 523 CURVE SMOOTH",
"400 428 OFFCURVE",
"338 372 OFFCURVE",
"236 372 CURVE SMOOTH",
"122 372 LINE"
);
},
{
closed = 1;
nodes = (
"236 351 LINE SMOOTH",
"351 351 OFFCURVE",
"422 415 OFFCURVE",
"422 523 CURVE SMOOTH",
"422 631 OFFCURVE",
"351 700 OFFCURVE",
"236 700 CURVE SMOOTH",
"100 700 LINE",
"100 351 LINE"
);
},
{
closed = 1;
nodes = (
"236 0 LINE SMOOTH",
"351 0 OFFCURVE",
"422 71 OFFCURVE",
"422 186 CURVE SMOOTH",
"422 301 OFFCURVE",
"351 372 OFFCURVE",
"236 372 CURVE SMOOTH",
"100 372 LINE",
"100 0 LINE"
);
}
);
width = 499;
}
);
unicode = 0042;
},
{
color = 1;
glyphname = C;
lastChange = "2016-10-07 07:45:37 +0000";
layers = (
{
layerId = "8841D1CF-9B01-449C-9B26-F87B28F18584";
paths = (
{
closed = 1;
nodes = (
"363 -9 OFFCURVE",
"437 63 OFFCURVE",
"437 174 CURVE SMOOTH",
"437 218 LINE",
"331 218 LINE",
"331 174 LINE SMOOTH",
"331 121 OFFCURVE",
"304 94 OFFCURVE",
"252 94 CURVE SMOOTH",
"200 94 OFFCURVE",
"173 121 OFFCURVE",
"173 174 CURVE SMOOTH",
"173 526 LINE SMOOTH",
"173 578 OFFCURVE",
"201 607 OFFCURVE",
"252 607 CURVE SMOOTH",
"303 607 OFFCURVE",
"331 578 OFFCURVE",
"331 526 CURVE SMOOTH",
"331 482 LINE",
"437 482 LINE",
"437 526 LINE SMOOTH",
"437 637 OFFCURVE",
"363 708 OFFCURVE",
"252 708 CURVE SMOOTH",
"141 708 OFFCURVE",
"67 637 OFFCURVE",
"67 526 CURVE SMOOTH",
"67 174 LINE SMOOTH",
"67 63 OFFCURVE",
"141 -9 OFFCURVE",
"252 -9 CURVE SMOOTH"
);
}
);
width = 478;
},
{
layerId = "59CB0402-E5A9-408B-857A-05EE50EAFC2E";
paths = (
{
closed = 1;
nodes = (
"510 -10 OFFCURVE",
"625 76 OFFCURVE",
"625 183 CURVE SMOOTH",
"625 278 LINE",
"413 278 LINE",
"413 223 LINE SMOOTH",
"413 197 OFFCURVE",
"392 178 OFFCURVE",
"369 178 CURVE SMOOTH",
"346 178 OFFCURVE",
"325 197 OFFCURVE",
"325 223 CURVE SMOOTH",
"325 477 LINE SMOOTH",
"325 503 OFFCURVE",
"346 522 OFFCURVE",
"369 522 CURVE SMOOTH",
"392 522 OFFCURVE",
"413 503 OFFCURVE",
"413 477 CURVE SMOOTH",
"413 422 LINE",
"625 422 LINE",
"625 517 LINE SMOOTH",
"625 624 OFFCURVE",
"510 710 OFFCURVE",
"369 710 CURVE SMOOTH",
"228 710 OFFCURVE",
"113 624 OFFCURVE",
"113 517 CURVE SMOOTH",
"113 183 LINE SMOOTH",
"113 76 OFFCURVE",
"228 -10 OFFCURVE",
"369 -10 CURVE SMOOTH"
);
}
);
width = 730;
},
{
layerId = "262880E7-CFE1-4BDA-902E-E24798F3240A";
paths = (
{
closed = 1;
nodes = (
"351 -11 OFFCURVE",
"413 50 OFFCURVE",
"413 150 CURVE SMOOTH",
"413 152 LINE",
"391 152 LINE",
"391 150 LINE SMOOTH",
"391 64 OFFCURVE",
"339 11 OFFCURVE",
"252 11 CURVE SMOOTH",
"165 11 OFFCURVE",
"113 64 OFFCURVE",
"113 150 CURVE SMOOTH",
"113 550 LINE SMOOTH",
"113 637 OFFCURVE",
"167 690 OFFCURVE",
"252 690 CURVE SMOOTH",
"337 690 OFFCURVE",
"391 637 OFFCURVE",
"391 550 CURVE SMOOTH",
"391 548 LINE",
"413 548 LINE",
"413 550 LINE SMOOTH",
"413 650 OFFCURVE",
"351 711 OFFCURVE",
"252 711 CURVE SMOOTH",
"153 711 OFFCURVE",
"91 650 OFFCURVE",
"91 550 CURVE SMOOTH",
"91 150 LINE SMOOTH",
"91 50 OFFCURVE",
"153 -11 OFFCURVE",
"252 -11 CURVE SMOOTH"
);
}
);
width = 478;
}
);
unicode = 0043;
},
{
color = 1;
glyphname = D;
lastChange = "2016-10-07 07:45:37 +0000";
layers = (
{
layerId = "8841D1CF-9B01-449C-9B26-F87B28F18584";
paths = (
{
closed = 1;
nodes = (
"260 0 LINE SMOOTH",
"372 0 OFFCURVE",
"445 73 OFFCURVE",
"445 184 CURVE SMOOTH",
"445 516 LINE SMOOTH",
"445 627 OFFCURVE",
"372 700 OFFCURVE",
"260 700 CURVE SMOOTH",
"75 700 LINE",
"75 0 LINE"
);
},
{
closed = 1;
nodes = (
"181 597 LINE",
"260 597 LINE SMOOTH",
"312 597 OFFCURVE",
"339 569 OFFCURVE",
"339 516 CURVE SMOOTH",
"339 184 LINE SMOOTH",
"339 132 OFFCURVE",
"312 104 OFFCURVE",
"260 104 CURVE SMOOTH",
"181 104 LINE"
);
}
);
width = 512;
},
{
layerId = "59CB0402-E5A9-408B-857A-05EE50EAFC2E";
paths = (
{
closed = 1;
nodes = (
"414 0 LINE SMOOTH",
"550 0 OFFCURVE",
"640 77 OFFCURVE",
"640 193 CURVE SMOOTH",
"640 507 LINE SMOOTH",
"640 623 OFFCURVE",
"550 700 OFFCURVE",
"414 700 CURVE SMOOTH",
"128 700 LINE",
"128 0 LINE"
);
},
{
closed = 1;
nodes = (
"340 512 LINE",
"384 512 LINE SMOOTH",
"410 512 OFFCURVE",
"428 494 OFFCURVE",
"428 467 CURVE SMOOTH",
"428 233 LINE SMOOTH",
"428 206 OFFCURVE",
"410 188 OFFCURVE",
"384 188 CURVE SMOOTH",
"340 188 LINE"
);
}
);
width = 754;
},
{
layerId = "262880E7-CFE1-4BDA-902E-E24798F3240A";
paths = (
{
closed = 1;
nodes = (
"261 0 LINE SMOOTH",
"361 0 OFFCURVE",
"422 61 OFFCURVE",
"422 161 CURVE SMOOTH",
"422 539 LINE SMOOTH",
"422 639 OFFCURVE",
"361 700 OFFCURVE",
"261 700 CURVE SMOOTH",
"100 700 LINE",
"100 0 LINE"
);
},
{
closed = 1;
nodes = (
"122 679 LINE",
"261 679 LINE SMOOTH",
"347 679 OFFCURVE",
"400 626 OFFCURVE",
"400 539 CURVE SMOOTH",
"400 161 LINE SMOOTH",
"400 75 OFFCURVE",
"347 22 OFFCURVE",
"261 22 CURVE SMOOTH",
"122 22 LINE"
);
}
);
width = 512;
}
);
unicode = 0044;
},
{
color = 1;
glyphname = E;
lastChange = "2016-10-07 07:47:17 +0000";
layers = (
{
layerId = "8841D1CF-9B01-449C-9B26-F87B28F18584";
paths = (
{
closed = 1;
nodes = (
"426 0 LINE",
"426 104 LINE",
"164 104 LINE",
"164 597 LINE",
"426 597 LINE",
"426 700 LINE",
"58 700 LINE",
"58 0 LINE"
);
},
{
closed = 1;
nodes = (
"334 299 LINE",
"334 402 LINE",
"68 402 LINE",
"68 299 LINE"
);
}
);
width = 477;
},
{
layerId = "59CB0402-E5A9-408B-857A-05EE50EAFC2E";
paths = (
{
closed = 1;
nodes = (
"634 0 LINE",
"634 188 LINE",
"340 188 LINE",
"340 512 LINE",
"634 512 LINE",
"634 700 LINE",
"128 700 LINE",
"128 0 LINE"
);
},
{
closed = 1;
nodes = (
"554 266 LINE",
"554 434 LINE",
"254 434 LINE",
"254 266 LINE"
);
}
);
width = 662;
},
{
layerId = "262880E7-CFE1-4BDA-902E-E24798F3240A";
paths = (
{
closed = 1;
nodes = (
"421 0 LINE",
"421 22 LINE",
"122 22 LINE",
"122 679 LINE",
"421 679 LINE",
"421 700 LINE",
"100 700 LINE",
"100 0 LINE"
);
},
{
closed = 1;
nodes = (
"316 340 LINE",
"316 361 LINE",
"111 361 LINE",
"111 340 LINE"
);
}
);
width = 477;
}
);
unicode = 0045;
},
{
color = 1;
glyphname = F;
lastChange = "2016-10-07 07:47:29 +0000";
layers = (
{
layerId = "8841D1CF-9B01-449C-9B26-F87B28F18584";
paths = (
{
closed = 1;
nodes = (
"182 0 LINE",
"182 597 LINE",
"445 597 LINE",
"445 700 LINE",
"76 700 LINE",
"76 0 LINE"
);
},
{
closed = 1;
nodes = (
"352 299 LINE",
"352 402 LINE",
"86 402 LINE",
"86 299 LINE"
);
}
);
width = 475;
},
{
layerId = "59CB0402-E5A9-408B-857A-05EE50EAFC2E";
paths = (
{
closed = 1;
nodes = (
"340 0 LINE",
"340 512 LINE",
"634 512 LINE",
"634 700 LINE",
"128 700 LINE",
"128 0 LINE"
);
},
{
closed = 1;
nodes = (
"554 266 LINE",
"554 434 LINE",
"254 434 LINE",
"254 266 LINE"
);
}
);
width = 647;
},
{
layerId = "262880E7-CFE1-4BDA-902E-E24798F3240A";
paths = (
{
closed = 1;
nodes = (
"122 0 LINE",
"122 679 LINE",
"421 679 LINE",
"421 700 LINE",
"100 700 LINE",
"100 0 LINE"
);
},
{
closed = 1;
nodes = (
"316 340 LINE",
"316 361 LINE",
"111 361 LINE",
"111 340 LINE"
);
}
);
width = 475;
}
);
unicode = 0046;
},
{
color = 1;
glyphname = G;
lastChange = "2016-10-07 07:45:38 +0000";
layers = (
{
layerId = "8841D1CF-9B01-449C-9B26-F87B28F18584";
paths = (
{
closed = 1;
nodes = (
"363 -9 OFFCURVE",
"437 64 OFFCURVE",
"437 174 CURVE SMOOTH",
"437 402 LINE",
"257 402 LINE",
"257 299 LINE",
"331 299 LINE",
"331 174 LINE SMOOTH",
"331 121 OFFCURVE",
"305 94 OFFCURVE",
"252 94 CURVE SMOOTH",
"199 94 OFFCURVE",
"173 121 OFFCURVE",
"173 174 CURVE SMOOTH",
"173 526 LINE SMOOTH",
"173 579 OFFCURVE",
"200 607 OFFCURVE",
"252 607 CURVE SMOOTH",
"304 607 OFFCURVE",
"331 579 OFFCURVE",
"331 526 CURVE",
"437 526 LINE",
"437 636 OFFCURVE",
"363 709 OFFCURVE",
"252 709 CURVE SMOOTH",
"141 709 OFFCURVE",
"67 636 OFFCURVE",
"67 526 CURVE SMOOTH",
"67 174 LINE SMOOTH",
"67 64 OFFCURVE",
"141 -9 OFFCURVE",
"252 -9 CURVE SMOOTH"
);
}
);
width = 493;
},
{
layerId = "59CB0402-E5A9-408B-857A-05EE50EAFC2E";
paths = (
{
closed = 1;
nodes = (
"525 -10 OFFCURVE",
"622 83 OFFCURVE",
"622 234 CURVE SMOOTH",
"622 400 LINE",
"366 400 LINE",
"366 270 LINE",
"410 270 LINE",
"410 234 LINE SMOOTH",
"410 199 OFFCURVE",
"393 178 OFFCURVE",
"366 178 CURVE SMOOTH",
"339 178 OFFCURVE",
"322 199 OFFCURVE",
"322 234 CURVE SMOOTH",
"322 466 LINE SMOOTH",
"322 501 OFFCURVE",
"339 522 OFFCURVE",
"366 522 CURVE SMOOTH",
"393 522 OFFCURVE",
"410 501 OFFCURVE",
"410 466 CURVE",
"622 466 LINE",
"622 617 OFFCURVE",
"525 710 OFFCURVE",
"366 710 CURVE SMOOTH",
"207 710 OFFCURVE",
"110 617 OFFCURVE",
"110 466 CURVE SMOOTH",
"110 234 LINE SMOOTH",
"110 83 OFFCURVE",
"207 -10 OFFCURVE",
"366 -10 CURVE SMOOTH"
);
}
);
width = 729;
},
{
layerId = "262880E7-CFE1-4BDA-902E-E24798F3240A";
paths = (
{
closed = 1;
nodes = (
"351 -11 OFFCURVE",
"413 51 OFFCURVE",
"413 150 CURVE SMOOTH",
"413 361 LINE",
"252 361 LINE",
"252 340 LINE",
"391 340 LINE",
"391 150 LINE SMOOTH",
"391 63 OFFCURVE",
"339 11 OFFCURVE",
"252 11 CURVE SMOOTH",
"165 11 OFFCURVE",
"113 63 OFFCURVE",
"113 150 CURVE SMOOTH",
"113 550 LINE SMOOTH",
"113 637 OFFCURVE",
"165 690 OFFCURVE",
"252 690 CURVE SMOOTH",
"339 690 OFFCURVE",
"391 637 OFFCURVE",
"391 550 CURVE",
"413 550 LINE",
"413 649 OFFCURVE",
"351 711 OFFCURVE",
"252 711 CURVE SMOOTH",
"153 711 OFFCURVE",
"91 649 OFFCURVE",
"91 550 CURVE SMOOTH",
"91 150 LINE SMOOTH",
"91 51 OFFCURVE",
"153 -11 OFFCURVE",
"252 -11 CURVE SMOOTH"
);
}
);
width = 493;
}
);
unicode = 0047;
},
{
color = 1;
glyphname = H;
lastChange = "2016-10-07 07:45:38 +0000";
layers = (
{
layerId = "8841D1CF-9B01-449C-9B26-F87B28F18584";
paths = (
{
closed = 1;
nodes = (
"446 0 LINE",
"446 700 LINE",
"340 700 LINE",
"340 0 LINE"
);
},
{
closed = 1;
nodes = (
"182 0 LINE",
"182 700 LINE",
"76 700 LINE",
"76 0 LINE"
);
},
{
closed = 1;
nodes = (
"431 299 LINE",
"431 402 LINE",
"91 402 LINE",
"91 299 LINE"
);
}
);
width = 522;
},
{
layerId = "59CB0402-E5A9-408B-857A-05EE50EAFC2E";
paths = (
{
closed = 1;
nodes = (
"640 0 LINE",
"640 700 LINE",
"428 700 LINE",
"428 0 LINE"
);
},
{
closed = 1;
nodes = (
"340 0 LINE",
"340 700 LINE",
"128 700 LINE",
"128 0 LINE"
);
},
{
closed = 1;
nodes = (
"444 256 LINE",
"444 444 LINE",
"324 444 LINE",
"324 256 LINE"
);
}
);
width = 768;
},
{
layerId = "262880E7-CFE1-4BDA-902E-E24798F3240A";
paths = (
{
closed = 1;
nodes = (
"422 0 LINE",
"422 700 LINE",
"400 700 LINE",
"400 0 LINE"
);
},
{
closed = 1;
nodes = (
"122 0 LINE",
"122 700 LINE",
"100 700 LINE",
"100 0 LINE"
);
},
{
closed = 1;
nodes = (
"405 340 LINE",
"405 361 LINE",
"117 361 LINE",
"117 340 LINE"
);
}
);
width = 522;
}
);
unicode = 0048;
},
{
color = 1;
glyphname = I;
lastChange = "2016-10-07 07:45:37 +0000";
layers = (
{
layerId = "8841D1CF-9B01-449C-9B26-F87B28F18584";
paths = (
{
closed = 1;
nodes = (
"164 0 LINE",
"164 700 LINE",
"58 700 LINE",
"58 0 LINE"
);
}
);
width = 222;
},
{
layerId = "59CB0402-E5A9-408B-857A-05EE50EAFC2E";
paths = (
{
closed = 1;
nodes = (
"330 0 LINE",
"330 700 LINE",
"128 700 LINE",
"128 0 LINE"
);
}
);
width = 458;
},
{
layerId = "262880E7-CFE1-4BDA-902E-E24798F3240A";
paths = (
{
closed = 1;
nodes = (
"122 0 LINE",
"122 700 LINE",
"100 700 LINE",
"100 0 LINE"
);
}
);
width = 222;
}
);
unicode = 0049;
},
{
color = 1;
glyphname = J;
lastChange = "2016-10-07 07:45:38 +0000";
layers = (
{
layerId = "8841D1CF-9B01-449C-9B26-F87B28F18584";
paths = (
{
closed = 1;
nodes = (
"329 -10 OFFCURVE",
"401 62 OFFCURVE",
"401 174 CURVE SMOOTH",
"401 699 LINE",
"295 699 LINE",
"295 174 LINE SMOOTH",
"295 121 OFFCURVE",
"269 94 OFFCURVE",
"219 94 CURVE SMOOTH",
"169 94 OFFCURVE",
"143 121 OFFCURVE",
"143 174 CURVE SMOOTH",
"143 255 LINE",
"37 255 LINE",
"37 174 LINE SMOOTH",
"37 62 OFFCURVE",
"109 -10 OFFCURVE",
"219 -10 CURVE SMOOTH"
);
}
);
width = 473;
},
{
layerId = "59CB0402-E5A9-408B-857A-05EE50EAFC2E";
paths = (
{
closed = 1;
nodes = (
"498 -10 OFFCURVE",
"603 89 OFFCURVE",
"603 235 CURVE",
"598 702 LINE",
"386 700 LINE",
"391 233 LINE",
"391 190 OFFCURVE",
"378 178 OFFCURVE",
"347 178 CURVE SMOOTH",
"316 178 OFFCURVE",
"303 190 OFFCURVE",
"303 234 CURVE SMOOTH",
"303 290 LINE",
"91 290 LINE",
"91 234 LINE SMOOTH",
"91 89 OFFCURVE",
"196 -10 OFFCURVE",
"347 -10 CURVE SMOOTH"
);
}
);
width = 720;
},
{
layerId = "262880E7-CFE1-4BDA-902E-E24798F3240A";
paths = (
{
closed = 1;
nodes = (
"317 -11 OFFCURVE",
"377 50 OFFCURVE",
"377 150 CURVE SMOOTH",
"377 700 LINE",
"355 700 LINE",
"355 150 LINE",
"355 64 OFFCURVE",
"303 11 OFFCURVE",
"219 11 CURVE SMOOTH",
"135 11 OFFCURVE",
"83 64 OFFCURVE",
"83 150 CURVE SMOOTH",
"83 195 LINE",
"61 195 LINE",
"61 150 LINE SMOOTH",
"61 50 OFFCURVE",
"121 -11 OFFCURVE",
"219 -11 CURVE SMOOTH"
);
}
);
width = 473;
}
);
unicode = 004A;
},
{
color = 1;
glyphname = K;
lastChange = "2016-10-07 07:45:37 +0000";
layers = (
{
layerId = "8841D1CF-9B01-449C-9B26-F87B28F18584";
paths = (
{
closed = 1;
nodes = (
"421 0 LINE",
"199 350 LINE",
"421 700 LINE",
"292 700 LINE",
"74 350 LINE",
"292 0 LINE"
);
},
{
closed = 1;
nodes = (
"142 0 LINE",
"142 700 LINE",
"36 700 LINE",
"36 0 LINE"
);
}
);
width = 487;
},
{
layerId = "59CB0402-E5A9-408B-857A-05EE50EAFC2E";
paths = (
{
closed = 1;
nodes = (
"673 0 LINE",
"428 350 LINE",
"668 700 LINE",
"429 700 LINE",
"208 350 LINE",
"429 0 LINE"
);
},
{
closed = 1;
nodes = (
"340 0 LINE",
"340 700 LINE",
"128 700 LINE",
"128 0 LINE"
);
}
);
width = 757;
},
{
layerId = "262880E7-CFE1-4BDA-902E-E24798F3240A";
paths = (
{
closed = 1;
nodes = (
"432 0 LINE",
"136 350 LINE",
"432 700 LINE",
"406 700 LINE",
"108 350 LINE",
"406 0 LINE"
);
},
{
closed = 1;
nodes = (
"122 0 LINE",
"122 700 LINE",
"100 700 LINE",
"100 0 LINE"
);
}
);
width = 487;
}
);
unicode = 004B;
},
{
color = 1;
glyphname = L;
lastChange = "2016-10-07 07:45:38 +0000";
layers = (
{
layerId = "8841D1CF-9B01-449C-9B26-F87B28F18584";
paths = (
{
closed = 1;
nodes = (
"435 0 LINE",
"435 104 LINE",
"181 104 LINE",
"181 700 LINE",
"76 700 LINE",
"76 0 LINE"
);
}
);
width = 465;
},
{
layerId = "59CB0402-E5A9-408B-857A-05EE50EAFC2E";
paths = (
{
closed = 1;
nodes = (
"575 0 LINE",
"575 202 LINE",
"340 202 LINE",
"340 700 LINE",
"128 700 LINE",
"128 0 LINE"
);
}
);
width = 669;
},
{
layerId = "262880E7-CFE1-4BDA-902E-E24798F3240A";
paths = (
{
closed = 1;
nodes = (
"411 0 LINE",
"411 22 LINE",
"122 22 LINE",
"122 700 LINE",
"100 700 LINE",
"100 0 LINE"
);
}
);
width = 465;
}
);
unicode = 004C;
},
{
color = 1;
glyphname = M;
lastChange = "2016-10-07 07:45:38 +0000";
layers = (
{
layerId = "8841D1CF-9B01-449C-9B26-F87B28F18584";
paths = (
{
closed = 1;
nodes = (
"190 0 LINE",
"190 457 LINE",
"311 245 LINE",
"432 457 LINE",
"432 0 LINE",
"539 0 LINE",
"539 700 LINE",
"451 700 LINE",
"311 456 LINE",
"171 700 LINE",
"83 700 LINE",
"83 0 LINE"
);
}
);
width = 622;
},
{
layerId = "59CB0402-E5A9-408B-857A-05EE50EAFC2E";
paths = (
{
closed = 1;
nodes = (
"340 0 LINE",
"340 337 LINE",
"434 142 LINE",
"528 337 LINE",
"528 0 LINE",
"740 0 LINE",
"740 698 LINE",
"524 698 LINE",
"434 518 LINE",
"341 702 LINE",
"128 702 LINE",
"128 0 LINE"
);
}
);
width = 868;
},
{
layerId = "262880E7-CFE1-4BDA-902E-E24798F3240A";
paths = (
{
closed = 1;
nodes = (
"122 0 LINE",
"122 659 LINE",
"311 328 LINE",
"500 659 LINE",
"500 0 LINE",
"522 0 LINE",
"522 700 LINE",
"499 700 LINE",
"311 372 LINE",
"123 700 LINE",
"100 700 LINE",
"100 0 LINE"
);
}
);
width = 622;
}
);
unicode = 004D;
},
{
color = 1;
glyphname = N;
lastChange = "2016-10-07 07:45:38 +0000";
layers = (
{
layerId = "8841D1CF-9B01-449C-9B26-F87B28F18584";
paths = (
{
closed = 1;
nodes = (
"182 0 LINE",
"182 401 LINE",
"354 0 LINE",
"446 0 LINE",
"446 700 LINE",
"340 700 LINE",
"340 299 LINE",
"168 700 LINE",
"76 700 LINE",
"76 0 LINE"
);
}
);
width = 522;
},
{
layerId = "59CB0402-E5A9-408B-857A-05EE50EAFC2E";
paths = (
{
closed = 1;
nodes = (
"340 0 LINE",
"340 254 LINE",
"460 2 LINE",
"660 2 LINE",
"660 700 LINE",
"448 700 LINE",
"448 447 LINE",
"328 699 LINE",
"128 699 LINE",
"128 0 LINE"
);
}
);
width = 788;
},
{
layerId = "262880E7-CFE1-4BDA-902E-E24798F3240A";
paths = (
{
closed = 1;
nodes = (
"122 0 LINE",
"122 647 LINE",
"399 0 LINE",
"422 0 LINE",
"422 700 LINE",
"400 700 LINE",
"400 53 LINE",
"123 700 LINE",
"100 700 LINE",
"100 0 LINE"
);
}
);
width = 522;
}
);
unicode = 004E;
},
{
color = 1;
glyphname = O;
lastChange = "2016-10-07 07:45:37 +0000";
layers = (
{
layerId = "8841D1CF-9B01-449C-9B26-F87B28F18584";
paths = (
{
closed = 1;
nodes = (
"354 -9 OFFCURVE",
"436 72 OFFCURVE",
"436 174 CURVE SMOOTH",
"436 526 LINE SMOOTH",
"436 628 OFFCURVE",
"354 709 OFFCURVE",
"251 709 CURVE SMOOTH",
"148 709 OFFCURVE",
"66 628 OFFCURVE",
"66 526 CURVE SMOOTH",
"66 174 LINE SMOOTH",
"66 72 OFFCURVE",
"148 -9 OFFCURVE",
"251 -9 CURVE SMOOTH"
);
},
{
closed = 1;
nodes = (
"207 94 OFFCURVE",
"172 129 OFFCURVE",
"172 174 CURVE SMOOTH",
"172 526 LINE SMOOTH",
"172 571 OFFCURVE",
"207 606 OFFCURVE",
"251 606 CURVE SMOOTH",
"295 606 OFFCURVE",
"330 571 OFFCURVE",
"330 526 CURVE SMOOTH",
"330 174 LINE SMOOTH",
"330 129 OFFCURVE",
"295 94 OFFCURVE",
"251 94 CURVE SMOOTH"
);
}
);
width = 502;
},
{
layerId = "59CB0402-E5A9-408B-857A-05EE50EAFC2E";
paths = (
{
closed = 1;
nodes = (
"537 -10 OFFCURVE",
"624 73 OFFCURVE",
"624 233 CURVE SMOOTH",
"624 467 LINE SMOOTH",
"624 627 OFFCURVE",
"537 710 OFFCURVE",
"368 710 CURVE SMOOTH",
"199 710 OFFCURVE",
"112 627 OFFCURVE",
"112 467 CURVE SMOOTH",
"112 233 LINE SMOOTH",
"112 73 OFFCURVE",
"199 -10 OFFCURVE",
"368 -10 CURVE SMOOTH"
);
},
{
closed = 1;
nodes = (
"345 178 OFFCURVE",
"324 197 OFFCURVE",
"324 223 CURVE SMOOTH",
"324 477 LINE SMOOTH",
"324 503 OFFCURVE",
"345 522 OFFCURVE",
"368 522 CURVE SMOOTH",
"391 522 OFFCURVE",
"412 503 OFFCURVE",
"412 477 CURVE SMOOTH",
"412 223 LINE SMOOTH",
"412 197 OFFCURVE",
"391 178 OFFCURVE",
"368 178 CURVE SMOOTH"
);
}
);
width = 735;
},
{
layerId = "262880E7-CFE1-4BDA-902E-E24798F3240A";
paths = (
{
closed = 1;
nodes = (
"340 -11 OFFCURVE",
"412 60 OFFCURVE",
"412 150 CURVE SMOOTH",
"412 550 LINE SMOOTH",
"412 640 OFFCURVE",
"340 711 OFFCURVE",
"251 711 CURVE SMOOTH",
"162 711 OFFCURVE",
"90 640 OFFCURVE",
"90 550 CURVE SMOOTH",
"90 150 LINE SMOOTH",
"90 60 OFFCURVE",
"162 -11 OFFCURVE",
"251 -11 CURVE SMOOTH"
);
},
{
closed = 1;
nodes = (
"172 11 OFFCURVE",
"112 72 OFFCURVE",
"112 150 CURVE SMOOTH",
"112 550 LINE SMOOTH",
"112 629 OFFCURVE",
"174 690 OFFCURVE",
"251 690 CURVE SMOOTH",
"328 690 OFFCURVE",
"390 629 OFFCURVE",
"390 550 CURVE SMOOTH",
"390 150 LINE SMOOTH",
"390 72 OFFCURVE",
"330 11 OFFCURVE",
"251 11 CURVE SMOOTH"
);
}
);
width = 502;
}
);
unicode = 004F;
},
{
color = 1;
glyphname = P;
lastChange = "2016-10-07 07:45:38 +0000";
layers = (
{
layerId = "8841D1CF-9B01-449C-9B26-F87B28F18584";
paths = (
{
closed = 1;
nodes = (
"182 0 LINE",
"182 597 LINE",
"248 597 LINE SMOOTH",
"307 597 OFFCURVE",
"347 558 OFFCURVE",
"347 499 CURVE SMOOTH",
"347 439 OFFCURVE",
"307 399 OFFCURVE",
"248 399 CURVE SMOOTH",
"92 399 LINE",
"92 296 LINE",
"249 296 LINE SMOOTH",
"371 296 OFFCURVE",
"452 377 OFFCURVE",
"452 498 CURVE SMOOTH",
"452 619 OFFCURVE",
"370 700 OFFCURVE",
"248 700 CURVE SMOOTH",
"76 700 LINE",
"76 0 LINE"
);
}
);
width = 493;
},
{
layerId = "59CB0402-E5A9-408B-857A-05EE50EAFC2E";
paths = (
{
closed = 1;
nodes = (
"340 0 LINE",
"340 512 LINE",
"379 512 LINE SMOOTH",
"409 512 OFFCURVE",
"428 493 OFFCURVE",
"428 462 CURVE SMOOTH",
"428 431 OFFCURVE",
"409 412 OFFCURVE",
"379 412 CURVE SMOOTH",
"324 412 LINE",
"324 233 LINE",
"409 233 LINE SMOOTH",
"548 233 OFFCURVE",
"640 333 OFFCURVE",
"640 483 CURVE SMOOTH",
"640 613 OFFCURVE",
"548 700 OFFCURVE",
"409 700 CURVE SMOOTH",
"128 700 LINE",
"128 0 LINE"
);
}
);
width = 734;
},
{
layerId = "262880E7-CFE1-4BDA-902E-E24798F3240A";
paths = (
{
closed = 1;
nodes = (
"122 0 LINE",
"122 690 LINE",
"246 690 LINE SMOOTH",
"346 690 OFFCURVE",
"407 627 OFFCURVE",
"407 524 CURVE SMOOTH",
"407 420 OFFCURVE",
"346 357 OFFCURVE",
"246 357 CURVE SMOOTH",
"117 357 LINE",
"117 335 LINE",
"246 336 LINE SMOOTH",
"359 337 OFFCURVE",
"429 408 OFFCURVE",
"429 523 CURVE SMOOTH",
"429 640 OFFCURVE",
"359 711 OFFCURVE",
"246 711 CURVE SMOOTH",
"100 711 LINE",
"100 0 LINE"
);
}
);
width = 493;
}
);
unicode = 0050;
},
{
color = 1;
glyphname = Q;
lastChange = "2016-10-07 07:45:37 +0000";
layers = (
{
layerId = "8841D1CF-9B01-449C-9B26-F87B28F18584";
paths = (
{
closed = 1;
nodes = (
"354 -9 OFFCURVE",
"436 72 OFFCURVE",
"436 174 CURVE SMOOTH",
"436 526 LINE SMOOTH",
"436 628 OFFCURVE",
"354 709 OFFCURVE",
"251 709 CURVE SMOOTH",
"148 709 OFFCURVE",
"66 628 OFFCURVE",
"66 526 CURVE SMOOTH",
"66 174 LINE SMOOTH",
"66 72 OFFCURVE",
"148 -9 OFFCURVE",
"251 -9 CURVE SMOOTH"
);
},
{
closed = 1;
nodes = (
"207 94 OFFCURVE",
"172 129 OFFCURVE",
"172 174 CURVE SMOOTH",
"172 526 LINE SMOOTH",
"172 571 OFFCURVE",
"207 606 OFFCURVE",
"251 606 CURVE SMOOTH",
"295 606 OFFCURVE",
"330 571 OFFCURVE",
"330 526 CURVE SMOOTH",
"330 174 LINE SMOOTH",
"330 129 OFFCURVE",
"295 94 OFFCURVE",
"251 94 CURVE SMOOTH"
);
}
);
width = 502;
},
{
layerId = "59CB0402-E5A9-408B-857A-05EE50EAFC2E";
paths = (
{
closed = 1;
nodes = (
"537 -10 OFFCURVE",
"624 73 OFFCURVE",
"624 233 CURVE SMOOTH",
"624 467 LINE SMOOTH",
"624 627 OFFCURVE",
"537 710 OFFCURVE",
"368 710 CURVE SMOOTH",
"199 710 OFFCURVE",
"112 627 OFFCURVE",
"112 467 CURVE SMOOTH",
"112 233 LINE SMOOTH",
"112 73 OFFCURVE",
"199 -10 OFFCURVE",
"368 -10 CURVE SMOOTH"
);
},
{
closed = 1;
nodes = (
"345 178 OFFCURVE",
"324 197 OFFCURVE",
"324 223 CURVE SMOOTH",
"324 477 LINE SMOOTH",
"324 503 OFFCURVE",
"345 522 OFFCURVE",
"368 522 CURVE SMOOTH",
"391 522 OFFCURVE",
"412 503 OFFCURVE",
"412 477 CURVE SMOOTH",
"412 223 LINE SMOOTH",
"412 197 OFFCURVE",
"391 178 OFFCURVE",
"368 178 CURVE SMOOTH"
);
}
);
width = 735;
},
{
layerId = "262880E7-CFE1-4BDA-902E-E24798F3240A";
paths = (
{
closed = 1;
nodes = (
"340 -11 OFFCURVE",
"412 60 OFFCURVE",
"412 150 CURVE SMOOTH",
"412 550 LINE SMOOTH",
"412 640 OFFCURVE",
"340 711 OFFCURVE",
"251 711 CURVE SMOOTH",
"162 711 OFFCURVE",
"90 640 OFFCURVE",
"90 550 CURVE SMOOTH",
"90 150 LINE SMOOTH",
"90 60 OFFCURVE",
"162 -11 OFFCURVE",
"251 -11 CURVE SMOOTH"
);
},
{
closed = 1;
nodes = (
"172 11 OFFCURVE",
"112 72 OFFCURVE",
"112 150 CURVE SMOOTH",
"112 550 LINE SMOOTH",
"112 629 OFFCURVE",
"174 690 OFFCURVE",
"251 690 CURVE SMOOTH",
"328 690 OFFCURVE",
"390 629 OFFCURVE",
"390 550 CURVE SMOOTH",
"390 150 LINE SMOOTH",
"390 72 OFFCURVE",
"330 11 OFFCURVE",
"251 11 CURVE SMOOTH"
);
}
);
width = 502;
}
);
unicode = 0051;
},
{
color = 1;
glyphname = R;
lastChange = "2016-10-07 07:45:38 +0000";
layers = (
{
layerId = "8841D1CF-9B01-449C-9B26-F87B28F18584";
paths = (
{
closed = 1;
nodes = (
"182 1 LINE",
"182 607 LINE",
"248 607 LINE SMOOTH",
"312 607 OFFCURVE",
"347 571 OFFCURVE",
"347 503 CURVE SMOOTH",
"347 434 OFFCURVE",
"312 397 OFFCURVE",
"248 397 CURVE SMOOTH",
"92 397 LINE",
"92 293 LINE",
"249 294 LINE SMOOTH",
"372 296 OFFCURVE",
"452 377 OFFCURVE",
"452 502 CURVE SMOOTH",
"452 628 OFFCURVE",
"372 710 OFFCURVE",
"248 710 CURVE SMOOTH",
"77 710 LINE",
"77 1 LINE"
);
},
{
closed = 1;
nodes = (
"454 1 LINE",
"298 388 LINE",
"201 349 LINE",
"340 1 LINE"
);
}
);
width = 495;
},
{
layerId = "59CB0402-E5A9-408B-857A-05EE50EAFC2E";
paths = (
{
closed = 1;
nodes = (
"340 0 LINE",
"340 512 LINE",
"399 512 LINE SMOOTH",
"429 512 OFFCURVE",
"448 493 OFFCURVE",
"448 462 CURVE SMOOTH",
"448 431 OFFCURVE",
"429 412 OFFCURVE",
"399 412 CURVE SMOOTH",
"324 412 LINE",
"324 233 LINE",
"429 233 LINE SMOOTH",
"568 233 OFFCURVE",
"660 333 OFFCURVE",
"660 483 CURVE SMOOTH",
"660 613 OFFCURVE",
"568 700 OFFCURVE",
"429 700 CURVE SMOOTH",
"128 700 LINE",
"128 0 LINE"
);
},
{
closed = 1;
nodes = (
"679 0 LINE",
"507 330 LINE",
"309 330 LINE",
"451 0 LINE"
);
}
);
width = 769;
},
{
layerId = "262880E7-CFE1-4BDA-902E-E24798F3240A";
paths = (
{
closed = 1;
nodes = (
"122 0 LINE",
"122 690 LINE",
"246 690 LINE SMOOTH",
"346 690 OFFCURVE",
"407 627 OFFCURVE",
"407 523 CURVE SMOOTH",
"407 419 OFFCURVE",
"346 355 OFFCURVE",
"246 355 CURVE SMOOTH",
"117 355 LINE",
"117 333 LINE",
"246 334 LINE SMOOTH",
"359 335 OFFCURVE",
"429 406 OFFCURVE",
"429 522 CURVE SMOOTH",
"429 639 OFFCURVE",
"359 711 OFFCURVE",
"246 711 CURVE SMOOTH",
"100 711 LINE",
"100 0 LINE"
);
},
{
closed = 1;
nodes = (
"408 0 LINE",
"266 354 LINE",
"246 346 LINE",
"384 0 LINE"
);
}
);
width = 495;
}
);
unicode = 0052;
},
{
color = 1;
glyphname = S;
lastChange = "2016-10-07 07:45:37 +0000";
layers = (
{
layerId = "8841D1CF-9B01-449C-9B26-F87B28F18584";
paths = (
{
closed = 1;
nodes = (
"344 -9 OFFCURVE",
"418 65 OFFCURVE",
"418 173 CURVE SMOOTH",
"418 288 OFFCURVE",
"335 347 OFFCURVE",
"262 395 CURVE SMOOTH",
"176 451 OFFCURVE",
"154 478 OFFCURVE",
"154 528 CURVE SMOOTH",
"154 579 OFFCURVE",
"181 607 OFFCURVE",
"230 607 CURVE SMOOTH",
"280 607 OFFCURVE",
"307 579 OFFCURVE",
"307 526 CURVE SMOOTH",
"307 460 LINE",
"412 460 LINE",
"412 526 LINE SMOOTH",
"412 637 OFFCURVE",
"340 709 OFFCURVE",
"230 709 CURVE SMOOTH",
"121 709 OFFCURVE",
"48 637 OFFCURVE",
"48 528 CURVE SMOOTH",
"48 413 OFFCURVE",
"133 354 OFFCURVE",
"202 308 CURVE SMOOTH",
"290 250 OFFCURVE",
"312 223 OFFCURVE",
"312 172 CURVE SMOOTH",
"312 123 OFFCURVE",
"284 94 OFFCURVE",
"234 94 CURVE SMOOTH",
"183 94 OFFCURVE",
"159 119 OFFCURVE",
"159 174 CURVE SMOOTH",
"159 240 LINE",
"54 240 LINE",
"54 174 LINE SMOOTH",
"54 61 OFFCURVE",
"123 -9 OFFCURVE",
"235 -9 CURVE SMOOTH"
);
}
);
width = 466;
},
{
layerId = "59CB0402-E5A9-408B-857A-05EE50EAFC2E";
paths = (
{
closed = 1;
nodes = (
"489 -10 OFFCURVE",
"579 71 OFFCURVE",
"579 194 CURVE SMOOTH",
"579 304 OFFCURVE",
"507 376 OFFCURVE",
"401 419 CURVE SMOOTH",
"347 441 OFFCURVE",
"299 449 OFFCURVE",
"299 484 CURVE SMOOTH",
"299 504 OFFCURVE",
"314 522 OFFCURVE",
"343 522 CURVE SMOOTH",
"370 522 OFFCURVE",
"387 505 OFFCURVE",
"387 477 CURVE SMOOTH",
"387 468 LINE",
"579 476 LINE",
"579 487 LINE SMOOTH",
"579 621 OFFCURVE",
"480 710 OFFCURVE",
"337 710 CURVE SMOOTH",
"198 710 OFFCURVE",
"107 627 OFFCURVE",
"107 506 CURVE SMOOTH",
"107 399 OFFCURVE",
"178 322 OFFCURVE",
"285 281 CURVE SMOOTH",
"329 264 OFFCURVE",
"387 251 OFFCURVE",
"387 217 CURVE SMOOTH",
"387 199 OFFCURVE",
"372 178 OFFCURVE",
"343 178 CURVE SMOOTH",
"316 178 OFFCURVE",
"299 195 OFFCURVE",
"299 223 CURVE SMOOTH",
"299 232 LINE",
"97 224 LINE",
"97 213 LINE SMOOTH",
"97 79 OFFCURVE",
"196 -10 OFFCURVE",
"346 -10 CURVE SMOOTH"
);
}
);
width = 679;
},
{
layerId = "262880E7-CFE1-4BDA-902E-E24798F3240A";
paths = (
{
closed = 1;
nodes = (
"330 -11 OFFCURVE",
"394 50 OFFCURVE",
"394 149 CURVE SMOOTH",
"394 255 OFFCURVE",
"321 307 OFFCURVE",
"239 361 CURVE SMOOTH",
"158 414 OFFCURVE",
"94 459 OFFCURVE",
"94 552 CURVE SMOOTH",
"94 636 OFFCURVE",
"146 690 OFFCURVE",
"230 690 CURVE SMOOTH",
"314 690 OFFCURVE",
"366 637 OFFCURVE",
"366 550 CURVE SMOOTH",
"366 500 LINE",
"388 500 LINE",
"388 550 LINE SMOOTH",
"388 650 OFFCURVE",
"328 711 OFFCURVE",
"230 711 CURVE SMOOTH",
"132 711 OFFCURVE",
"72 649 OFFCURVE",
"72 553 CURVE SMOOTH",
"72 446 OFFCURVE",
"147 394 OFFCURVE",
"225 342 CURVE SMOOTH",
"302 291 OFFCURVE",
"372 244 OFFCURVE",
"372 148 CURVE SMOOTH",
"372 63 OFFCURVE",
"316 11 OFFCURVE",
"234 11 CURVE SMOOTH",
"146 11 OFFCURVE",
"100 64 OFFCURVE",
"100 150 CURVE SMOOTH",
"100 200 LINE",
"78 200 LINE",
"78 150 LINE SMOOTH",
"78 50 OFFCURVE",
"133 -11 OFFCURVE",
"235 -11 CURVE SMOOTH"
);
}
);
width = 466;
}
);
unicode = 0053;
},
{
color = 1;
glyphname = T;
lastChange = "2016-10-07 07:45:37 +0000";
layers = (
{
layerId = "8841D1CF-9B01-449C-9B26-F87B28F18584";
paths = (
{
closed = 1;
nodes = (
"264 0 LINE",
"264 690 LINE",
"159 690 LINE",
"159 0 LINE"
);
},
{
closed = 1;
nodes = (
"400 597 LINE",
"400 700 LINE",
"30 700 LINE",
"30 597 LINE"
);
}
);
width = 430;
},
{
layerId = "59CB0402-E5A9-408B-857A-05EE50EAFC2E";
paths = (
{
closed = 1;
nodes = (
"453 0 LINE",
"453 606 LINE",
"241 606 LINE",
"241 0 LINE"
);
},
{
closed = 1;
nodes = (
"601 512 LINE",
"601 700 LINE",
"93 700 LINE",
"93 512 LINE"
);
}
);
width = 694;
},
{
layerId = "262880E7-CFE1-4BDA-902E-E24798F3240A";
paths = (
{
closed = 1;
nodes = (
"222 0 LINE",
"222 689 LINE",
"200 689 LINE",
"200 0 LINE"
);
},
{
closed = 1;
nodes = (
"376 679 LINE",
"376 700 LINE",
"54 700 LINE",
"54 679 LINE"
);
}
);
width = 430;
}
);
unicode = 0054;
},
{
color = 1;
glyphname = U;
lastChange = "2016-10-07 07:45:38 +0000";
layers = (
{
layerId = "8841D1CF-9B01-449C-9B26-F87B28F18584";
paths = (
{
closed = 1;
nodes = (
"368 -10 OFFCURVE",
"442 63 OFFCURVE",
"442 174 CURVE SMOOTH",
"442 699 LINE",
"336 699 LINE",
"336 174 LINE SMOOTH",
"336 121 OFFCURVE",
"309 94 OFFCURVE",
"257 94 CURVE SMOOTH",
"205 94 OFFCURVE",
"178 121 OFFCURVE",
"178 174 CURVE SMOOTH",
"178 699 LINE",
"72 699 LINE",
"72 174 LINE SMOOTH",
"72 63 OFFCURVE",
"146 -10 OFFCURVE",
"257 -10 CURVE SMOOTH"
);
}
);
width = 514;
},
{
layerId = "59CB0402-E5A9-408B-857A-05EE50EAFC2E";
paths = (
{
closed = 1;
nodes = (
"526 -10 OFFCURVE",
"631 89 OFFCURVE",
"631 234 CURVE SMOOTH",
"631 700 LINE",
"419 700 LINE",
"419 234 LINE SMOOTH",
"419 190 OFFCURVE",
"406 178 OFFCURVE",
"375 178 CURVE SMOOTH",
"344 178 OFFCURVE",
"331 190 OFFCURVE",
"331 234 CURVE SMOOTH",
"331 700 LINE",
"119 700 LINE",
"119 234 LINE SMOOTH",
"119 89 OFFCURVE",
"224 -10 OFFCURVE",
"375 -10 CURVE SMOOTH"
);
}
);
width = 750;
},
{
layerId = "262880E7-CFE1-4BDA-902E-E24798F3240A";
paths = (
{
closed = 1;
nodes = (
"356 -11 OFFCURVE",
"418 50 OFFCURVE",
"418 150 CURVE SMOOTH",
"418 700 LINE",
"396 700 LINE",
"396 150 LINE SMOOTH",
"396 64 OFFCURVE",
"344 11 OFFCURVE",
"257 11 CURVE SMOOTH",
"170 11 OFFCURVE",
"118 64 OFFCURVE",
"118 150 CURVE SMOOTH",
"118 700 LINE",
"96 700 LINE",
"96 150 LINE SMOOTH",
"96 50 OFFCURVE",
"158 -11 OFFCURVE",
"257 -11 CURVE SMOOTH"
);
}
);
width = 514;
}
);
unicode = 0055;
},
{
color = 1;
glyphname = V;
lastChange = "2016-10-07 07:45:38 +0000";
layers = (
{
layerId = "8841D1CF-9B01-449C-9B26-F87B28F18584";
paths = (
{
closed = 1;
nodes = (
"283 0 LINE",
"453 700 LINE",
"345 700 LINE",
"239 238 LINE",
"133 700 LINE",
"25 700 LINE",
"195 0 LINE"
);
}
);
width = 478;
},
{
layerId = "59CB0402-E5A9-408B-857A-05EE50EAFC2E";
paths = (
{
closed = 1;
nodes = (
"503 1 LINE",
"703 700 LINE",
"485 700 LINE",
"394 323 LINE",
"303 700 LINE",
"85 700 LINE",
"285 1 LINE"
);
}
);
width = 788;
},
{
layerId = "262880E7-CFE1-4BDA-902E-E24798F3240A";
paths = (
{
closed = 1;
nodes = (
"250 0 LINE",
"420 700 LINE",
"398 700 LINE",
"239 40 LINE",
"80 700 LINE",
"58 700 LINE",
"228 0 LINE"
);
}
);
width = 478;
}
);
unicode = 0056;
},
{
color = 1;
glyphname = W;
lastChange = "2016-10-07 07:45:38 +0000";
layers = (
{
layerId = "8841D1CF-9B01-449C-9B26-F87B28F18584";
paths = (
{
closed = 1;
nodes = (
"258 0 LINE",
"322 364 LINE",
"386 0 LINE",
"478 0 LINE",
"603 700 LINE",
"496 700 LINE",
"432 336 LINE",
"368 700 LINE",
"276 700 LINE",
"212 336 LINE",
"148 700 LINE",
"41 700 LINE",
"166 0 LINE"
);
}
);
width = 644;
},
{
layerId = "59CB0402-E5A9-408B-857A-05EE50EAFC2E";
paths = (
{
closed = 1;
nodes = (
"454 1 LINE",
"496 227 LINE",
"538 1 LINE",
"754 1 LINE",
"904 700 LINE",
"688 700 LINE",
"646 463 LINE",
"604 699 LINE",
"388 699 LINE",
"346 463 LINE",
"304 700 LINE",
"88 700 LINE",
"238 1 LINE"
);
}
);
width = 992;
},
{
layerId = "262880E7-CFE1-4BDA-902E-E24798F3240A";
paths = (
{
closed = 1;
nodes = (
"208 0 LINE",
"322 648 LINE",
"436 0 LINE",
"458 0 LINE",
"583 700 LINE",
"561 700 LINE",
"447 52 LINE",
"333 700 LINE",
"311 700 LINE",
"197 52 LINE",
"83 700 LINE",
"61 700 LINE",
"186 0 LINE"
);
}
);
width = 644;
}
);
unicode = 0057;
},
{
color = 1;
glyphname = X;
lastChange = "2016-10-07 07:45:37 +0000";
layers = (
{
layerId = "8841D1CF-9B01-449C-9B26-F87B28F18584";
paths = (
{
closed = 1;
nodes = (
"317 700 LINE",
"431 700 LINE",
"123 0 LINE",
"9 0 LINE"
);
},
{
closed = 1;
nodes = (
"9 700 LINE",
"123 700 LINE",
"431 0 LINE",
"317 0 LINE"
);
}
);
width = 440;
},
{
layerId = "59CB0402-E5A9-408B-857A-05EE50EAFC2E";
paths = (
{
closed = 1;
nodes = (
"85 700 LINE",
"323 700 LINE",
"723 0 LINE",
"485 0 LINE"
);
},
{
closed = 1;
nodes = (
"485 700 LINE",
"723 700 LINE",
"323 0 LINE",
"85 0 LINE"
);
}
);
width = 808;
},
{
layerId = "262880E7-CFE1-4BDA-902E-E24798F3240A";
paths = (
{
closed = 1;
nodes = (
"363 700 LINE",
"386 700 LINE",
"77 0 LINE",
"54 0 LINE"
);
},
{
closed = 1;
nodes = (
"54 700 LINE",
"77 700 LINE",
"386 0 LINE",
"363 0 LINE"
);
}
);
width = 440;
}
);
unicode = 0058;
},
{
color = 1;
glyphname = Y;
lastChange = "2016-10-07 07:45:38 +0000";
layers = (
{
layerId = "8841D1CF-9B01-449C-9B26-F87B28F18584";
paths = (
{
closed = 1;
nodes = (
"431 700 LINE",
"315 700 LINE",
"218 482 LINE",
"122 700 LINE",
"5 700 LINE",
"218 226 LINE"
);
},
{
closed = 1;
nodes = (
"271 0 LINE",
"271 392 LINE",
"165 392 LINE",
"165 0 LINE"
);
}
);
width = 436;
},
{
layerId = "59CB0402-E5A9-408B-857A-05EE50EAFC2E";
paths = (
{
closed = 1;
nodes = (
"686 700 LINE",
"470 700 LINE",
"386 519 LINE",
"309 700 LINE",
"83 700 LINE",
"385 72 LINE"
);
},
{
closed = 1;
nodes = (
"491 0 LINE",
"491 350 LINE",
"279 350 LINE",
"279 0 LINE"
);
}
);
width = 769;
},
{
layerId = "262880E7-CFE1-4BDA-902E-E24798F3240A";
paths = (
{
closed = 1;
nodes = (
"385 700 LINE",
"360 700 LINE",
"218 379 LINE",
"77 700 LINE",
"51 700 LINE",
"218 328 LINE"
);
},
{
closed = 1;
nodes = (
"229 0 LINE",
"229 350 LINE",
"207 350 LINE",
"207 0 LINE"
);
}
);
width = 436;
}
);
unicode = 0059;
},
{
color = 1;
glyphname = Z;
lastChange = "2016-10-07 07:45:38 +0000";
layers = (
{
layerId = "8841D1CF-9B01-449C-9B26-F87B28F18584";
paths = (
{
closed = 1;
nodes = (
"398 0 LINE",
"398 104 LINE",
"191 104 LINE",
"414 700 LINE",
"48 700 LINE",
"48 597 LINE",
"255 597 LINE",
"32 0 LINE"
);
}
);
width = 446;
},
{
layerId = "59CB0402-E5A9-408B-857A-05EE50EAFC2E";
paths = (
{
closed = 1;
nodes = (
"616 0 LINE",
"616 188 LINE",
"376 188 LINE",
"636 700 LINE",
"118 700 LINE",
"118 512 LINE",
"348 512 LINE",
"88 0 LINE"
);
}
);
width = 727;
},
{
layerId = "262880E7-CFE1-4BDA-902E-E24798F3240A";
paths = (
{
closed = 1;
nodes = (
"373 0 LINE",
"373 22 LINE",
"89 22 LINE",
"389 700 LINE",
"73 700 LINE",
"73 679 LINE",
"357 679 LINE",
"57 0 LINE"
);
}
);
width = 446;
}
);
unicode = 005A;
},
{
color = 1;
glyphname = a;
lastChange = "2016-10-07 07:45:38 +0000";
layers = (
{
layerId = "8841D1CF-9B01-449C-9B26-F87B28F18584";
paths = (
{
closed = 1;
nodes = (
"304 -5 OFFCURVE",
"367 75 OFFCURVE",
"367 178 CURVE SMOOTH",
"367 322 LINE SMOOTH",
"367 426 OFFCURVE",
"293 505 OFFCURVE",
"198 505 CURVE SMOOTH",
"121 505 OFFCURVE",
"52 453 OFFCURVE",
"52 334 CURVE SMOOTH",
"52 166 LINE SMOOTH",
"52 49 OFFCURVE",
"130 -5 OFFCURVE",
"209 -5 CURVE SMOOTH"
);
},
{
closed = 1;
nodes = (
"182 90 OFFCURVE",
"154 119 OFFCURVE",
"154 166 CURVE SMOOTH",
"154 334 LINE SMOOTH",
"154 382 OFFCURVE",
"182 411 OFFCURVE",
"229 411 CURVE SMOOTH",
"276 411 OFFCURVE",
"304 382 OFFCURVE",
"304 334 CURVE SMOOTH",
"304 166 LINE SMOOTH",
"304 119 OFFCURVE",
"276 90 OFFCURVE",
"229 90 CURVE SMOOTH"
);
},
{
closed = 1;
nodes = (
"406 0 LINE",
"406 500 LINE",
"304 500 LINE",
"304 0 LINE"
);
}
);
width = 470;
},
{
layerId = "59CB0402-E5A9-408B-857A-05EE50EAFC2E";
paths = (
{
closed = 1;
nodes = (
"372 0 OFFCURVE",
"552 138 OFFCURVE",
"552 178 CURVE SMOOTH",
"552 212 LINE SMOOTH",
"552 253 OFFCURVE",
"444 500 OFFCURVE",
"250 500 CURVE",
"147 500 OFFCURVE",
"90 449 OFFCURVE",
"90 350 CURVE SMOOTH",
"90 160 LINE SMOOTH",
"90 69 OFFCURVE",
"130 0 OFFCURVE",
"229 0 CURVE SMOOTH"
);
},
{
closed = 1;
nodes = (
"307 171 OFFCURVE",
"298 181 OFFCURVE",
"298 198 CURVE SMOOTH",
"298 312 LINE SMOOTH",
"298 329 OFFCURVE",
"307 339 OFFCURVE",
"323 339 CURVE SMOOTH",
"339 339 OFFCURVE",
"348 329 OFFCURVE",
"348 312 CURVE SMOOTH",
"348 198 LINE SMOOTH",
"348 181 OFFCURVE",
"339 171 OFFCURVE",
"323 171 CURVE SMOOTH"
);
},
{
closed = 1;
nodes = (
"556 0 LINE",
"556 500 LINE",
"348 500 LINE",
"348 0 LINE"
);
}
);
width = 659;
},
{
layerId = "262880E7-CFE1-4BDA-902E-E24798F3240A";
paths = (
{
closed = 1;
nodes = (
"324 -11 OFFCURVE",
"387 52 OFFCURVE",
"387 152 CURVE SMOOTH",
"387 348 LINE SMOOTH",
"387 448 OFFCURVE",
"324 511 OFFCURVE",
"228 511 CURVE SMOOTH",
"131 511 OFFCURVE",
"68 450 OFFCURVE",
"68 350 CURVE SMOOTH",
"68 150 LINE SMOOTH",
"68 50 OFFCURVE",
"131 -11 OFFCURVE",
"228 -11 CURVE SMOOTH"
);
},
{
closed = 1;
nodes = (
"142 11 OFFCURVE",
"90 64 OFFCURVE",
"90 150 CURVE SMOOTH",
"90 350 LINE SMOOTH",
"90 436 OFFCURVE",
"144 490 OFFCURVE",
"229 490 CURVE SMOOTH",
"314 490 OFFCURVE",
"368 436 OFFCURVE",
"368 350 CURVE SMOOTH",
"368 150 LINE SMOOTH",
"368 64 OFFCURVE",
"316 11 OFFCURVE",
"229 11 CURVE SMOOTH"
);
},
{
closed = 1;
nodes = (
"390 0 LINE",
"390 500 LINE",
"368 500 LINE",
"368 0 LINE"
);
}
);
width = 470;
}
);
unicode = 0061;
},
{
color = 1;
glyphname = b;
lastChange = "2016-10-07 07:45:38 +0000";
layers = (
{
layerId = "8841D1CF-9B01-449C-9B26-F87B28F18584";
paths = (
{
closed = 1;
nodes = (
"348 -5 OFFCURVE",
"406 60 OFFCURVE",
"406 166 CURVE SMOOTH",
"406 334 LINE SMOOTH",
"406 440 OFFCURVE",
"350 505 OFFCURVE",
"262 505 CURVE SMOOTH",
"164 505 OFFCURVE",
"91 426 OFFCURVE",
"91 322 CURVE SMOOTH",
"91 178 LINE SMOOTH",
"91 77 OFFCURVE",
"148 -5 OFFCURVE",
"254 -5 CURVE SMOOTH"
);
},
{
closed = 1;
nodes = (
"154 0 LINE",
"154 700 LINE",
"52 700 LINE",
"52 0 LINE"
);
},
{
closed = 1;
nodes = (
"182 90 OFFCURVE",
"154 119 OFFCURVE",
"154 166 CURVE SMOOTH",
"154 334 LINE SMOOTH",
"154 382 OFFCURVE",
"182 411 OFFCURVE",
"229 411 CURVE SMOOTH",
"276 411 OFFCURVE",
"304 382 OFFCURVE",
"304 334 CURVE SMOOTH",
"304 166 LINE SMOOTH",
"304 119 OFFCURVE",
"276 90 OFFCURVE",
"229 90 CURVE SMOOTH"
);
}
);
width = 470;
},
{
layerId = "59CB0402-E5A9-408B-857A-05EE50EAFC2E";
paths = (
{
closed = 1;
nodes = (
"529 0 OFFCURVE",
"569 69 OFFCURVE",
"569 160 CURVE SMOOTH",
"569 350 LINE SMOOTH",
"569 441 OFFCURVE",
"521 510 OFFCURVE",
"430 510 CURVE",
"299 510 OFFCURVE",
"157 358 OFFCURVE",
"157 247 CURVE SMOOTH",
"157 183 LINE SMOOTH",
"157 142 OFFCURVE",
"287 0 OFFCURVE",
"430 0 CURVE SMOOTH"
);
},
{
closed = 1;
nodes = (
"311 0 LINE",
"311 700 LINE",
"103 700 LINE",
"103 0 LINE"
);
},
{
closed = 1;
nodes = (
"320 171 OFFCURVE",
"311 181 OFFCURVE",
"311 198 CURVE SMOOTH",
"311 312 LINE SMOOTH",
"311 329 OFFCURVE",
"320 339 OFFCURVE",
"336 339 CURVE SMOOTH",
"352 339 OFFCURVE",
"361 329 OFFCURVE",
"361 312 CURVE SMOOTH",
"361 198 LINE SMOOTH",
"361 181 OFFCURVE",
"352 171 OFFCURVE",
"336 171 CURVE SMOOTH"
);
}
);
width = 649;
},
{
layerId = "262880E7-CFE1-4BDA-902E-E24798F3240A";
paths = (
{
closed = 1;
nodes = (
"342 -11 OFFCURVE",
"402 50 OFFCURVE",
"402 150 CURVE SMOOTH",
"402 350 LINE SMOOTH",
"402 450 OFFCURVE",
"342 511 OFFCURVE",
"244 511 CURVE SMOOTH",
"146 511 OFFCURVE",
"82 448 OFFCURVE",
"82 348 CURVE SMOOTH",
"82 152 LINE SMOOTH",
"82 52 OFFCURVE",
"146 -11 OFFCURVE",
"244 -11 CURVE SMOOTH"
);
},
{
closed = 1;
nodes = (
"102 0 LINE",
"102 700 LINE",
"80 700 LINE",
"80 0 LINE"
);
},
{
closed = 1;
nodes = (
"155 11 OFFCURVE",
"102 64 OFFCURVE",
"102 150 CURVE SMOOTH",
"102 350 LINE SMOOTH",
"102 437 OFFCURVE",
"155 490 OFFCURVE",
"241 490 CURVE SMOOTH",
"327 490 OFFCURVE",
"380 437 OFFCURVE",
"380 350 CURVE SMOOTH",
"380 150 LINE SMOOTH",
"380 64 OFFCURVE",
"327 11 OFFCURVE",
"241 11 CURVE SMOOTH"
);
}
);
width = 470;
}
);
unicode = 0062;
},
{
color = 1;
glyphname = c;
lastChange = "2016-10-07 07:45:38 +0000";
layers = (
{
layerId = "8841D1CF-9B01-449C-9B26-F87B28F18584";
paths = (
{
closed = 1;
nodes = (
"335 -10 OFFCURVE",
"406 52 OFFCURVE",
"406 146 CURVE SMOOTH",
"406 162 LINE",
"304 162 LINE",
"304 146 LINE SMOOTH",
"304 111 OFFCURVE",
"275 90 OFFCURVE",
"229 90 CURVE SMOOTH",
"183 90 OFFCURVE",
"154 119 OFFCURVE",
"154 166 CURVE SMOOTH",
"154 334 LINE SMOOTH",
"154 382 OFFCURVE",
"183 411 OFFCURVE",
"229 411 CURVE SMOOTH",
"275 411 OFFCURVE",
"304 389 OFFCURVE",
"304 354 CURVE SMOOTH",
"304 338 LINE",
"406 338 LINE",
"406 354 LINE SMOOTH",
"406 448 OFFCURVE",
"335 510 OFFCURVE",
"229 510 CURVE SMOOTH",
"123 510 OFFCURVE",
"52 440 OFFCURVE",
"52 334 CURVE SMOOTH",
"52 166 LINE SMOOTH",
"52 60 OFFCURVE",
"123 -10 OFFCURVE",
"229 -10 CURVE SMOOTH"
);
}
);
width = 441;
},
{
layerId = "59CB0402-E5A9-408B-857A-05EE50EAFC2E";
paths = (
{
closed = 1;
nodes = (
"469 -8 OFFCURVE",
"543 66 OFFCURVE",
"554 231 CURVE",
"554 233 LINE",
"342 233 LINE",
"342 188 LINE SMOOTH",
"342 171 OFFCURVE",
"333 161 OFFCURVE",
"317 161 CURVE SMOOTH",
"301 161 OFFCURVE",
"292 171 OFFCURVE",
"292 188 CURVE",
"292 322 LINE",
"292 339 OFFCURVE",
"301 349 OFFCURVE",
"317 349 CURVE SMOOTH",
"333 349 OFFCURVE",
"342 339 OFFCURVE",
"342 322 CURVE",
"342 277 LINE",
"554 277 LINE",
"554 279 LINE",
"552 437 OFFCURVE",
"478 508 OFFCURVE",
"316 508 CURVE SMOOTH",
"153 508 OFFCURVE",
"80 430 OFFCURVE",
"80 256 CURVE SMOOTH",
"80 247 LINE SMOOTH",
"80 71 OFFCURVE",
"153 -8 OFFCURVE",
"315 -8 CURVE SMOOTH"
);
}
);
width = 632;
},
{
layerId = "262880E7-CFE1-4BDA-902E-E24798F3240A";
paths = (
{
closed = 1;
nodes = (
"328 -11 OFFCURVE",
"390 50 OFFCURVE",
"390 150 CURVE SMOOTH",
"390 153 LINE",
"368 153 LINE",
"368 150 LINE SMOOTH",
"368 64 OFFCURVE",
"316 11 OFFCURVE",
"229 11 CURVE SMOOTH",
"142 11 OFFCURVE",
"90 64 OFFCURVE",
"90 150 CURVE SMOOTH",
"90 350 LINE SMOOTH",
"90 437 OFFCURVE",
"144 490 OFFCURVE",
"229 490 CURVE SMOOTH",
"314 490 OFFCURVE",
"368 437 OFFCURVE",
"368 350 CURVE SMOOTH",
"368 348 LINE",
"390 348 LINE",
"390 350 LINE SMOOTH",
"390 450 OFFCURVE",
"328 511 OFFCURVE",
"229 511 CURVE SMOOTH",
"130 511 OFFCURVE",
"68 450 OFFCURVE",
"68 350 CURVE SMOOTH",
"68 150 LINE SMOOTH",
"68 50 OFFCURVE",
"130 -11 OFFCURVE",
"229 -11 CURVE SMOOTH"
);
}
);
width = 441;
}
);
unicode = 0063;
},
{
color = 1;
glyphname = d;
lastChange = "2016-10-07 07:45:37 +0000";
layers = (
{
layerId = "8841D1CF-9B01-449C-9B26-F87B28F18584";
paths = (
{
closed = 1;
nodes = (
"304 -5 OFFCURVE",
"367 75 OFFCURVE",
"367 178 CURVE SMOOTH",
"367 322 LINE SMOOTH",
"367 426 OFFCURVE",
"293 505 OFFCURVE",
"198 505 CURVE SMOOTH",
"121 505 OFFCURVE",
"52 453 OFFCURVE",
"52 334 CURVE SMOOTH",
"52 166 LINE SMOOTH",
"52 49 OFFCURVE",
"130 -5 OFFCURVE",
"209 -5 CURVE SMOOTH"
);
},
{
closed = 1;
nodes = (
"182 90 OFFCURVE",
"154 119 OFFCURVE",
"154 166 CURVE SMOOTH",
"154 334 LINE SMOOTH",
"154 382 OFFCURVE",
"182 411 OFFCURVE",
"229 411 CURVE SMOOTH",
"276 411 OFFCURVE",
"304 382 OFFCURVE",
"304 334 CURVE SMOOTH",
"304 166 LINE SMOOTH",
"304 119 OFFCURVE",
"276 90 OFFCURVE",
"229 90 CURVE SMOOTH"
);
},
{
closed = 1;
nodes = (
"406 0 LINE",
"406 700 LINE",
"304 700 LINE",
"304 0 LINE"
);
}
);
width = 470;
},
{
layerId = "59CB0402-E5A9-408B-857A-05EE50EAFC2E";
paths = (
{
closed = 1;
nodes = (
"362 0 OFFCURVE",
"542 138 OFFCURVE",
"542 178 CURVE SMOOTH",
"542 212 LINE SMOOTH",
"542 253 OFFCURVE",
"434 500 OFFCURVE",
"240 500 CURVE",
"137 500 OFFCURVE",
"80 449 OFFCURVE",
"80 350 CURVE SMOOTH",
"80 160 LINE SMOOTH",
"80 69 OFFCURVE",
"120 0 OFFCURVE",
"219 0 CURVE SMOOTH"
);
},
{
closed = 1;
nodes = (
"296 171 OFFCURVE",
"287 181 OFFCURVE",
"287 198 CURVE SMOOTH",
"287 312 LINE SMOOTH",
"287 329 OFFCURVE",
"296 339 OFFCURVE",
"312 339 CURVE SMOOTH",
"328 339 OFFCURVE",
"337 329 OFFCURVE",
"337 312 CURVE SMOOTH",
"337 198 LINE SMOOTH",
"337 181 OFFCURVE",
"328 171 OFFCURVE",
"312 171 CURVE SMOOTH"
);
},
{
closed = 1;
nodes = (
"545 0 LINE",
"545 700 LINE",
"337 700 LINE",
"337 0 LINE"
);
}
);
width = 648;
},
{
layerId = "262880E7-CFE1-4BDA-902E-E24798F3240A";
paths = (
{
closed = 1;
nodes = (
"324 -11 OFFCURVE",
"387 52 OFFCURVE",
"387 152 CURVE SMOOTH",
"387 348 LINE SMOOTH",
"387 448 OFFCURVE",
"324 511 OFFCURVE",
"226 511 CURVE SMOOTH",
"128 511 OFFCURVE",
"68 450 OFFCURVE",
"68 350 CURVE SMOOTH",
"68 150 LINE SMOOTH",
"68 50 OFFCURVE",
"128 -11 OFFCURVE",
"226 -11 CURVE SMOOTH"
);
},
{
closed = 1;
nodes = (
"143 11 OFFCURVE",
"90 64 OFFCURVE",
"90 150 CURVE SMOOTH",
"90 350 LINE SMOOTH",
"90 437 OFFCURVE",
"143 490 OFFCURVE",
"229 490 CURVE SMOOTH",
"315 490 OFFCURVE",
"368 437 OFFCURVE",
"368 350 CURVE SMOOTH",
"368 150 LINE SMOOTH",
"368 64 OFFCURVE",
"315 11 OFFCURVE",
"229 11 CURVE SMOOTH"
);
},
{
closed = 1;
nodes = (
"390 0 LINE",
"390 700 LINE",
"368 700 LINE",
"368 0 LINE"
);
}
);
width = 470;
}
);
unicode = 0064;
},
{
color = 1;
glyphname = e;
lastChange = "2016-10-07 07:45:38 +0000";
layers = (
{
layerId = "8841D1CF-9B01-449C-9B26-F87B28F18584";
paths = (
{
closed = 1;
nodes = (
"335 -10 OFFCURVE",
"406 60 OFFCURVE",
"406 156 CURVE SMOOTH",
"406 161 LINE",
"304 161 LINE",
"304 156 LINE SMOOTH",
"304 115 OFFCURVE",
"279 90 OFFCURVE",
"229 90 CURVE SMOOTH",
"179 90 OFFCURVE",
"154 115 OFFCURVE",
"154 166 CURVE SMOOTH",
"154 334 LINE SMOOTH",
"154 385 OFFCURVE",
"180 411 OFFCURVE",
"229 411 CURVE SMOOTH",
"278 411 OFFCURVE",
"304 385 OFFCURVE",
"304 334 CURVE SMOOTH",
"304 300 LINE",
"67 300 LINE",
"67 212 LINE",
"406 212 LINE",
"406 334 LINE SMOOTH",
"406 440 OFFCURVE",
"335 510 OFFCURVE",
"229 510 CURVE SMOOTH",
"123 510 OFFCURVE",
"52 440 OFFCURVE",
"52 334 CURVE SMOOTH",
"52 166 LINE SMOOTH",
"52 60 OFFCURVE",
"123 -10 OFFCURVE",
"229 -10 CURVE SMOOTH"
);
}
);
width = 452;
},
{
layerId = "59CB0402-E5A9-408B-857A-05EE50EAFC2E";
paths = (
{
closed = 1;
nodes = (
"470 -8 OFFCURVE",
"544 55 OFFCURVE",
"554 198 CURVE",
"554 198 LINE",
"342 198 LINE",
"342 188 LINE SMOOTH",
"342 171 OFFCURVE",
"333 161 OFFCURVE",
"317 161 CURVE SMOOTH",
"301 161 OFFCURVE",
"292 171 OFFCURVE",
"292 188 CURVE SMOOTH",
"292 322 LINE SMOOTH",
"292 339 OFFCURVE",
"301 349 OFFCURVE",
"317 349 CURVE SMOOTH",
"333 349 OFFCURVE",
"342 339 OFFCURVE",
"342 322 CURVE SMOOTH",
"342 279 LINE",
"281 279 LINE",
"281 231 LINE",
"554 231 LINE",
"554 262 LINE",
"552 432 OFFCURVE",
"478 508 OFFCURVE",
"316 508 CURVE SMOOTH",
"153 508 OFFCURVE",
"80 430 OFFCURVE",
"80 256 CURVE SMOOTH",
"80 247 LINE SMOOTH",
"80 71 OFFCURVE",
"153 -8 OFFCURVE",
"315 -8 CURVE SMOOTH"
);
}
);
width = 634;
},
{
associatedMasterId = "8841D1CF-9B01-449C-9B26-F87B28F18584";
layerId = "9A50E751-D878-44E4-8C48-20211EFA92C6";
name = "Brace {120,100}";
paths = (
{
closed = 1;
nodes = (
"368 -9 OFFCURVE",
"437 53 OFFCURVE",
"442 176 CURVE",
"442 178 LINE",
"317 178 LINE",
"317 176 LINE SMOOTH",
"317 131 OFFCURVE",
"289 103 OFFCURVE",
"240 103 CURVE SMOOTH",
"192 103 OFFCURVE",
"163 133 OFFCURVE",
"163 181 CURVE SMOOTH",
"163 324 LINE SMOOTH",
"163 373 OFFCURVE",
"193 403 OFFCURVE",
"240 403 CURVE SMOOTH",
"288 403 OFFCURVE",
"317 373 OFFCURVE",
"317 324 CURVE SMOOTH",
"317 299 LINE",
"155 299 LINE",
"155 211 LINE",
"442 211 LINE",
"442 302 LINE",
"441 440 OFFCURVE",
"373 509 OFFCURVE",
"240 509 CURVE SMOOTH",
"106 509 OFFCURVE",
"38 439 OFFCURVE",
"38 299 CURVE SMOOTH",
"38 203 LINE SMOOTH",
"38 61 OFFCURVE",
"106 -9 OFFCURVE",
"239 -9 CURVE SMOOTH"
);
}
);
width = 477;
visible = 1;
},
{
associatedMasterId = "262880E7-CFE1-4BDA-902E-E24798F3240A";
layerId = "3CEF2D4B-7961-44AA-B0D5-B2E040DB4A41";
name = "Brace {120,100}";
paths = (
{
closed = 1;
nodes = (
"368 -9 OFFCURVE",
"437 53 OFFCURVE",
"442 176 CURVE",
"442 178 LINE",
"317 178 LINE",
"317 176 LINE SMOOTH",
"317 131 OFFCURVE",
"289 103 OFFCURVE",
"240 103 CURVE SMOOTH",
"192 103 OFFCURVE",
"163 133 OFFCURVE",
"163 181 CURVE SMOOTH",
"163 324 LINE SMOOTH",
"163 373 OFFCURVE",
"193 403 OFFCURVE",
"240 403 CURVE SMOOTH",
"288 403 OFFCURVE",
"317 373 OFFCURVE",
"317 324 CURVE SMOOTH",
"317 299 LINE",
"155 299 LINE",
"155 211 LINE",
"442 211 LINE",
"442 302 LINE",
"441 440 OFFCURVE",
"373 509 OFFCURVE",
"240 509 CURVE SMOOTH",
"106 509 OFFCURVE",
"38 439 OFFCURVE",
"38 299 CURVE SMOOTH",
"38 203 LINE SMOOTH",
"38 61 OFFCURVE",
"106 -9 OFFCURVE",
"239 -9 CURVE SMOOTH"
);
}
);
width = 477;
},
{
layerId = "262880E7-CFE1-4BDA-902E-E24798F3240A";
paths = (
{
closed = 1;
nodes = (
"328 -11 OFFCURVE",
"390 50 OFFCURVE",
"390 150 CURVE SMOOTH",
"390 154 LINE",
"368 154 LINE",
"368 150 LINE SMOOTH",
"368 64 OFFCURVE",
"316 11 OFFCURVE",
"229 11 CURVE SMOOTH",
"142 11 OFFCURVE",
"90 64 OFFCURVE",
"90 150 CURVE SMOOTH",
"90 350 LINE SMOOTH",
"90 437 OFFCURVE",
"144 490 OFFCURVE",
"229 490 CURVE SMOOTH",
"314 490 OFFCURVE",
"368 437 OFFCURVE",
"368 350 CURVE SMOOTH",
"368 261 LINE",
"85 261 LINE",
"85 240 LINE",
"390 240 LINE",
"390 350 LINE SMOOTH",
"390 450 OFFCURVE",
"328 511 OFFCURVE",
"229 511 CURVE SMOOTH",
"130 511 OFFCURVE",
"68 450 OFFCURVE",
"68 350 CURVE SMOOTH",
"68 150 LINE SMOOTH",
"68 50 OFFCURVE",
"130 -11 OFFCURVE",
"229 -11 CURVE SMOOTH"
);
}
);
width = 452;
},
{
associatedMasterId = "262880E7-CFE1-4BDA-902E-E24798F3240A";
layerId = "9D8DF20E-CBA3-43EE-9978-948F1F9FD2C5";
name = "Brace {120,100}";
paths = (
{
closed = 1;
nodes = (
"368 -9 OFFCURVE",
"437 53 OFFCURVE",
"442 176 CURVE",
"442 178 LINE",
"317 178 LINE",
"317 176 LINE SMOOTH",
"317 131 OFFCURVE",
"289 103 OFFCURVE",
"240 103 CURVE SMOOTH",
"192 103 OFFCURVE",
"163 133 OFFCURVE",
"163 181 CURVE SMOOTH",
"163 324 LINE SMOOTH",
"163 373 OFFCURVE",
"193 403 OFFCURVE",
"240 403 CURVE SMOOTH",
"288 403 OFFCURVE",
"317 373 OFFCURVE",
"317 324 CURVE SMOOTH",
"317 299 LINE",
"155 299 LINE",
"155 211 LINE",
"442 211 LINE",
"442 302 LINE",
"441 440 OFFCURVE",
"373 509 OFFCURVE",
"240 509 CURVE SMOOTH",
"106 509 OFFCURVE",
"38 439 OFFCURVE",
"38 299 CURVE SMOOTH",
"38 203 LINE SMOOTH",
"38 61 OFFCURVE",
"106 -9 OFFCURVE",
"239 -9 CURVE SMOOTH"
);
}
);
width = 477;
}
);
unicode = 0065;
},
{
color = 1;
glyphname = f;
lastChange = "2016-10-07 07:45:37 +0000";
layers = (
{
layerId = "8841D1CF-9B01-449C-9B26-F87B28F18584";
paths = (
{
closed = 1;
nodes = (
"173 0 LINE",
"173 525 LINE SMOOTH",
"173 587 OFFCURVE",
"197 605 OFFCURVE",
"263 604 CURVE",
"263 700 LINE",
"103 705 OFFCURVE",
"68 637 OFFCURVE",
"68 525 CURVE SMOOTH",
"68 0 LINE"
);
},
{
closed = 1;
nodes = (
"269 397 LINE",
"269 500 LINE",
"7 500 LINE",
"7 397 LINE"
);
}
);
width = 270;
},
{
layerId = "59CB0402-E5A9-408B-857A-05EE50EAFC2E";
paths = (
{
closed = 1;
nodes = (
"328 8 LINE",
"328 527 LINE",
"328 547 OFFCURVE",
"340 551 OFFCURVE",
"362 551 CURVE",
"362 693 LINE",
"222 700 OFFCURVE",
"116 690 OFFCURVE",
"116 549 CURVE",
"116 8 LINE"
);
},
{
closed = 1;
nodes = (
"380 326 LINE",
"380 500 LINE",
"70 500 LINE",
"70 326 LINE"
);
}
);
width = 455;
},
{
associatedMasterId = "8841D1CF-9B01-449C-9B26-F87B28F18584";
layerId = "2A54E209-1ED7-4A8E-ADE2-3C776EC03571";
name = "Brace {120,100}";
paths = (
{
closed = 1;
nodes = (
"200 4 LINE",
"200 538 LINE",
"200 579 OFFCURVE",
"220 593 OFFCURVE",
"282 593 CURVE",
"282 701 LINE",
"160 705 OFFCURVE",
"75 681 OFFCURVE",
"75 549 CURVE",
"75 4 LINE"
);
},
{
closed = 1;
nodes = (
"278 396 LINE",
"278 500 LINE",
"18 500 LINE",
"18 396 LINE"
);
}
);
width = 291;
},
{
associatedMasterId = "262880E7-CFE1-4BDA-902E-E24798F3240A";
layerId = "7166BF04-FB6F-438D-9CD7-6ADA982C4DAC";
name = "Brace {120,100}";
paths = (
{
closed = 1;
nodes = (
"200 4 LINE",
"200 538 LINE",
"200 579 OFFCURVE",
"220 593 OFFCURVE",
"282 593 CURVE",
"282 701 LINE",
"160 705 OFFCURVE",
"75 681 OFFCURVE",
"75 549 CURVE",
"75 4 LINE"
);
},
{
closed = 1;
nodes = (
"278 396 LINE",
"278 500 LINE",
"18 500 LINE",
"18 396 LINE"
);
}
);
width = 291;
},
{
layerId = "262880E7-CFE1-4BDA-902E-E24798F3240A";
paths = (
{
closed = 1;
nodes = (
"126 0 LINE",
"126 550 LINE SMOOTH",
"126 637 OFFCURVE",
"179 690 OFFCURVE",
"265 690 CURVE",
"265 711 LINE",
"165 711 OFFCURVE",
"104 650 OFFCURVE",
"104 550 CURVE SMOOTH",
"104 0 LINE"
);
},
{
closed = 1;
nodes = (
"235 479 LINE",
"235 500 LINE",
"35 500 LINE",
"35 479 LINE"
);
}
);
width = 270;
},
{
associatedMasterId = "262880E7-CFE1-4BDA-902E-E24798F3240A";
layerId = "1035E12E-5963-44BA-8DB8-699EB95B285B";
name = "Brace {120,100}";
paths = (
{
closed = 1;
nodes = (
"200 4 LINE",
"200 538 LINE",
"200 579 OFFCURVE",
"220 593 OFFCURVE",
"282 593 CURVE",
"282 701 LINE",
"160 705 OFFCURVE",
"75 681 OFFCURVE",
"75 549 CURVE",
"75 4 LINE"
);
},
{
closed = 1;
nodes = (
"278 396 LINE",
"278 500 LINE",
"18 500 LINE",
"18 396 LINE"
);
}
);
width = 291;
}
);
unicode = 0066;
},
{
color = 1;
glyphname = g;
lastChange = "2016-10-07 07:45:38 +0000";
layers = (
{
layerId = "8841D1CF-9B01-449C-9B26-F87B28F18584";
paths = (
{
closed = 1;
nodes = (
"331 -209 OFFCURVE",
"419 -166 OFFCURVE",
"419 -11 CURVE SMOOTH",
"419 500 LINE",
"317 500 LINE",
"317 -21 LINE SMOOTH",
"317 -70 OFFCURVE",
"279 -100 OFFCURVE",
"231 -95 CURVE",
"231 -205 LINE"
);
},
{
closed = 1;
nodes = (
"182 90 OFFCURVE",
"154 119 OFFCURVE",
"154 166 CURVE SMOOTH",
"154 334 LINE SMOOTH",
"154 382 OFFCURVE",
"182 411 OFFCURVE",
"229 411 CURVE SMOOTH",
"276 411 OFFCURVE",
"304 382 OFFCURVE",
"304 334 CURVE SMOOTH",
"304 166 LINE SMOOTH",
"304 119 OFFCURVE",
"276 90 OFFCURVE",
"229 90 CURVE SMOOTH"
);
},
{
closed = 1;
nodes = (
"304 -5 OFFCURVE",
"367 75 OFFCURVE",
"367 178 CURVE SMOOTH",
"367 322 LINE SMOOTH",
"367 426 OFFCURVE",
"293 505 OFFCURVE",
"198 505 CURVE SMOOTH",
"121 505 OFFCURVE",
"52 453 OFFCURVE",
"52 334 CURVE SMOOTH",
"52 166 LINE SMOOTH",
"52 49 OFFCURVE",
"130 -5 OFFCURVE",
"209 -5 CURVE SMOOTH"
);
}
);
width = 470;
},
{
layerId = "59CB0402-E5A9-408B-857A-05EE50EAFC2E";
paths = (
{
closed = 1;
nodes = (
"489 -226 OFFCURVE",
"548 -115 OFFCURVE",
"548 34 CURVE SMOOTH",
"548 500 LINE",
"336 500 LINE",
"336 34 LINE SMOOTH",
"336 -14 OFFCURVE",
"326 -44 OFFCURVE",
"192 -36 CURVE",
"192 -207 LINE"
);
},
{
closed = 1;
nodes = (
"295 171 OFFCURVE",
"286 181 OFFCURVE",
"286 198 CURVE SMOOTH",
"286 312 LINE SMOOTH",
"286 329 OFFCURVE",
"295 339 OFFCURVE",
"311 339 CURVE SMOOTH",
"327 339 OFFCURVE",
"336 329 OFFCURVE",
"336 312 CURVE SMOOTH",
"336 198 LINE SMOOTH",
"336 181 OFFCURVE",
"327 171 OFFCURVE",
"311 171 CURVE SMOOTH"
);
},
{
closed = 1;
nodes = (
"361 0 OFFCURVE",
"541 138 OFFCURVE",
"541 178 CURVE SMOOTH",
"541 212 LINE SMOOTH",
"541 253 OFFCURVE",
"433 500 OFFCURVE",
"239 500 CURVE",
"136 500 OFFCURVE",
"79 449 OFFCURVE",
"79 350 CURVE SMOOTH",
"79 160 LINE SMOOTH",
"79 69 OFFCURVE",
"119 0 OFFCURVE",
"218 0 CURVE SMOOTH"
);
}
);
width = 642;
},
{
layerId = "262880E7-CFE1-4BDA-902E-E24798F3240A";
paths = (
{
closed = 1;
nodes = (
"329 -211 OFFCURVE",
"390 -150 OFFCURVE",
"390 -50 CURVE SMOOTH",
"390 500 LINE",
"368 500 LINE",
"368 -50 LINE SMOOTH",
"368 -137 OFFCURVE",
"315 -190 OFFCURVE",
"229 -190 CURVE",
"229 -211 LINE"
);
},
{
closed = 1;
nodes = (
"143 11 OFFCURVE",
"90 64 OFFCURVE",
"90 150 CURVE SMOOTH",
"90 350 LINE SMOOTH",
"90 437 OFFCURVE",
"143 490 OFFCURVE",
"229 490 CURVE SMOOTH",
"315 490 OFFCURVE",
"368 437 OFFCURVE",
"368 350 CURVE SMOOTH",
"368 150 LINE SMOOTH",
"368 64 OFFCURVE",
"315 11 OFFCURVE",
"229 11 CURVE SMOOTH"
);
},
{
closed = 1;
nodes = (
"325 -11 OFFCURVE",
"387 53 OFFCURVE",
"387 152 CURVE SMOOTH",
"387 348 LINE SMOOTH",
"387 447 OFFCURVE",
"325 511 OFFCURVE",
"227 511 CURVE SMOOTH",
"130 511 OFFCURVE",
"68 450 OFFCURVE",
"68 350 CURVE SMOOTH",
"68 150 LINE SMOOTH",
"68 50 OFFCURVE",
"130 -11 OFFCURVE",
"227 -11 CURVE SMOOTH"
);
}
);
width = 470;
}
);
unicode = 0067;
},
{
color = 1;
glyphname = h;
lastChange = "2016-10-07 07:45:38 +0000";
layers = (
{
layerId = "8841D1CF-9B01-449C-9B26-F87B28F18584";
paths = (
{
closed = 1;
nodes = (
"418 0 LINE",
"418 330 LINE SMOOTH",
"418 442 OFFCURVE",
"373 509 OFFCURVE",
"273 509 CURVE SMOOTH",
"173 509 OFFCURVE",
"121 442 OFFCURVE",
"121 334 CURVE",
"166 334 LINE",
"166 382 OFFCURVE",
"194 411 OFFCURVE",
"241 411 CURVE SMOOTH",
"288 411 OFFCURVE",
"316 382 OFFCURVE",
"316 334 CURVE SMOOTH",
"316 0 LINE"
);
},
{
closed = 1;
nodes = (
"166 0 LINE",
"166 700 LINE",
"64 700 LINE",
"64 0 LINE"
);
}
);
width = 476;
},
{
layerId = "59CB0402-E5A9-408B-857A-05EE50EAFC2E";
paths = (
{
closed = 1;
nodes = (
"569 0 LINE",
"569 350 LINE SMOOTH",
"569 441 OFFCURVE",
"531 510 OFFCURVE",
"426 510 CURVE SMOOTH",
"289 510 OFFCURVE",
"249 393 OFFCURVE",
"249 292 CURVE",
"311 312 LINE",
"311 329 OFFCURVE",
"320 339 OFFCURVE",
"336 339 CURVE SMOOTH",
"352 339 OFFCURVE",
"361 329 OFFCURVE",
"361 312 CURVE SMOOTH",
"361 0 LINE"
);
},
{
closed = 1;
nodes = (
"311 0 LINE",
"311 700 LINE",
"103 700 LINE",
"103 0 LINE"
);
}
);
width = 654;
},
{
layerId = "262880E7-CFE1-4BDA-902E-E24798F3240A";
paths = (
{
closed = 1;
nodes = (
"402 0 LINE",
"402 350 LINE SMOOTH",
"402 450 OFFCURVE",
"340 511 OFFCURVE",
"243 511 CURVE SMOOTH",
"145 511 OFFCURVE",
"87 450 OFFCURVE",
"87 350 CURVE",
"102 350 LINE",
"102 437 OFFCURVE",
"156 490 OFFCURVE",
"241 490 CURVE SMOOTH",
"326 490 OFFCURVE",
"380 437 OFFCURVE",
"380 350 CURVE SMOOTH",
"380 0 LINE"
);
},
{
closed = 1;
nodes = (
"102 0 LINE",
"102 700 LINE",
"80 700 LINE",
"80 0 LINE"
);
}
);
width = 476;
}
);
unicode = 0068;
},
{
color = 1;
glyphname = i;
lastChange = "2016-10-07 07:45:38 +0000";
layers = (
{
layerId = "8841D1CF-9B01-449C-9B26-F87B28F18584";
paths = (
{
closed = 1;
nodes = (
"142 0 LINE",
"142 500 LINE",
"40 500 LINE",
"40 0 LINE"
);
},
{
closed = 1;
nodes = (
"133 625 OFFCURVE",
"166 659 OFFCURVE",
"166 700 CURVE SMOOTH",
"166 740 OFFCURVE",
"132 774 OFFCURVE",
"91 774 CURVE SMOOTH",
"50 774 OFFCURVE",
"16 740 OFFCURVE",
"16 700 CURVE SMOOTH",
"16 658 OFFCURVE",
"49 625 OFFCURVE",
"91 625 CURVE SMOOTH"
);
}
);
width = 182;
},
{
layerId = "59CB0402-E5A9-408B-857A-05EE50EAFC2E";
paths = (
{
closed = 1;
nodes = (
"307 0 LINE",
"307 500 LINE",
"99 500 LINE",
"99 0 LINE"
);
},
{
closed = 1;
nodes = (
"262 547 OFFCURVE",
"313 591 OFFCURVE",
"313 656 CURVE",
"313 715 OFFCURVE",
"262 763 OFFCURVE",
"203 763 CURVE SMOOTH",
"144 763 OFFCURVE",
"93 715 OFFCURVE",
"93 656 CURVE SMOOTH",
"93 595 OFFCURVE",
"142 547 OFFCURVE",
"203 547 CURVE SMOOTH"
);
}
);
width = 406;
},
{
layerId = "262880E7-CFE1-4BDA-902E-E24798F3240A";
paths = (
{
closed = 1;
nodes = (
"102 0 LINE",
"102 500 LINE",
"80 500 LINE",
"80 0 LINE"
);
},
{
closed = 1;
nodes = (
"113 659 OFFCURVE",
"132 677 OFFCURVE",
"132 700 CURVE SMOOTH",
"132 722 OFFCURVE",
"113 740 OFFCURVE",
"91 740 CURVE SMOOTH",
"69 740 OFFCURVE",
"50 722 OFFCURVE",
"50 700 CURVE SMOOTH",
"50 677 OFFCURVE",
"68 659 OFFCURVE",
"91 659 CURVE SMOOTH"
);
}
);
width = 182;
}
);
unicode = 0069;
},
{
color = 1;
glyphname = j;
lastChange = "2016-10-07 07:45:38 +0000";
layers = (
{
layerId = "8841D1CF-9B01-449C-9B26-F87B28F18584";
paths = (
{
closed = 1;
nodes = (
"73 -175 OFFCURVE",
"135 -113 OFFCURVE",
"135 -20 CURVE SMOOTH",
"135 503 LINE",
"34 503 LINE",
"34 -20 LINE SMOOTH",
"34 -58 OFFCURVE",
"16 -77 OFFCURVE",
"-21 -77 CURVE",
"-21 -175 LINE"
);
},
{
closed = 1;
nodes = (
"128 625 OFFCURVE",
"160 657 OFFCURVE",
"160 700 CURVE SMOOTH",
"160 743 OFFCURVE",
"128 774 OFFCURVE",
"84 774 CURVE SMOOTH",
"40 774 OFFCURVE",
"9 743 OFFCURVE",
"9 700 CURVE SMOOTH",
"9 657 OFFCURVE",
"40 625 OFFCURVE",
"84 625 CURVE SMOOTH"
);
}
);
width = 182;
},
{
layerId = "59CB0402-E5A9-408B-857A-05EE50EAFC2E";
paths = (
{
closed = 1;
nodes = (
"246 -236 OFFCURVE",
"354 -200 OFFCURVE",
"353 -39 CURVE",
"353 500 LINE",
"145 500 LINE",
"145 -8 LINE",
"145 -40 OFFCURVE",
"96 -39 OFFCURVE",
"72 -26 CURVE",
"62 -201 LINE"
);
},
{
closed = 1;
nodes = (
"308 547 OFFCURVE",
"359 595 OFFCURVE",
"359 656 CURVE",
"359 715 OFFCURVE",
"308 763 OFFCURVE",
"249 763 CURVE SMOOTH",
"190 763 OFFCURVE",
"139 715 OFFCURVE",
"139 656 CURVE SMOOTH",
"139 595 OFFCURVE",
"188 547 OFFCURVE",
"249 547 CURVE SMOOTH"
);
}
);
width = 450;
},
{
layerId = "262880E7-CFE1-4BDA-902E-E24798F3240A";
paths = (
{
closed = 1;
nodes = (
"50 -211 OFFCURVE",
"102 -159 OFFCURVE",
"102 -74 CURVE SMOOTH",
"102 500 LINE",
"80 500 LINE",
"80 -74 LINE SMOOTH",
"80 -146 OFFCURVE",
"37 -190 OFFCURVE",
"-34 -190 CURVE",
"-34 -211 LINE"
);
},
{
closed = 1;
nodes = (
"116 659 OFFCURVE",
"132 675 OFFCURVE",
"132 700 CURVE SMOOTH",
"132 725 OFFCURVE",
"116 740 OFFCURVE",
"91 740 CURVE SMOOTH",
"66 740 OFFCURVE",
"50 725 OFFCURVE",
"50 700 CURVE SMOOTH",
"50 675 OFFCURVE",
"66 659 OFFCURVE",
"91 659 CURVE SMOOTH"
);
}
);
width = 182;
}
);
unicode = 006A;
},
{
color = 1;
glyphname = k;
lastChange = "2016-10-07 07:45:38 +0000";
layers = (
{
layerId = "8841D1CF-9B01-449C-9B26-F87B28F18584";
paths = (
{
closed = 1;
nodes = (
"390 0 LINE",
"197 250 LINE",
"390 500 LINE",
"259 500 LINE",
"70 250 LINE",
"258 0 LINE"
);
},
{
closed = 1;
nodes = (
"146 0 LINE",
"147 700 LINE",
"45 700 LINE",
"44 0 LINE"
);
}
);
width = 398;
},
{
layerId = "59CB0402-E5A9-408B-857A-05EE50EAFC2E";
paths = (
{
closed = 1;
nodes = (
"382 0 LINE",
"136 250 LINE",
"384 500 LINE",
"353 500 LINE",
"104 250 LINE",
"351 0 LINE"
);
},
{
closed = 1;
nodes = (
"124 1 LINE",
"125 700 LINE",
"103 700 LINE",
"102 1 LINE"
);
}
);
width = 442;
},
{
layerId = "262880E7-CFE1-4BDA-902E-E24798F3240A";
paths = (
{
closed = 1;
nodes = (
"360 0 LINE",
"114 250 LINE",
"362 500 LINE",
"331 500 LINE",
"82 250 LINE",
"329 0 LINE"
);
},
{
closed = 1;
nodes = (
"102 1 LINE",
"103 700 LINE",
"81 700 LINE",
"80 1 LINE"
);
}
);
width = 398;
}
);
unicode = 006B;
},
{
color = 1;
glyphname = l;
lastChange = "2016-10-07 07:45:37 +0000";
layers = (
{
layerId = "8841D1CF-9B01-449C-9B26-F87B28F18584";
paths = (
{
closed = 1;
nodes = (
"142 0 LINE",
"142 700 LINE",
"40 700 LINE",
"40 0 LINE"
);
}
);
width = 182;
},
{
layerId = "59CB0402-E5A9-408B-857A-05EE50EAFC2E";
paths = (
{
closed = 1;
nodes = (
"311 0 LINE",
"311 700 LINE",
"103 700 LINE",
"103 0 LINE"
);
}
);
width = 414;
},
{
layerId = "262880E7-CFE1-4BDA-902E-E24798F3240A";
paths = (
{
closed = 1;
nodes = (
"102 0 LINE",
"102 700 LINE",
"80 700 LINE",
"80 0 LINE"
);
}
);
width = 182;
}
);
unicode = 006C;
},
{
color = 1;
glyphname = m;
lastChange = "2016-10-07 07:45:38 +0000";
layers = (
{
layerId = "8841D1CF-9B01-449C-9B26-F87B28F18584";
paths = (
{
closed = 1;
nodes = (
"670 0 LINE",
"670 330 LINE SMOOTH",
"670 442 OFFCURVE",
"625 509 OFFCURVE",
"525 509 CURVE SMOOTH",
"425 509 OFFCURVE",
"373 442 OFFCURVE",
"373 334 CURVE",
"418 334 LINE",
"418 382 OFFCURVE",
"446 411 OFFCURVE",
"493 411 CURVE SMOOTH",
"540 411 OFFCURVE",
"568 382 OFFCURVE",
"568 334 CURVE SMOOTH",
"568 0 LINE"
);
},
{
closed = 1;
nodes = (
"166 0 LINE",
"166 500 LINE",
"64 500 LINE",
"64 0 LINE"
);
},
{
closed = 1;
nodes = (
"418 0 LINE",
"418 330 LINE SMOOTH",
"418 442 OFFCURVE",
"373 509 OFFCURVE",
"273 509 CURVE SMOOTH",
"173 509 OFFCURVE",
"121 442 OFFCURVE",
"121 334 CURVE",
"166 334 LINE",
"166 382 OFFCURVE",
"194 411 OFFCURVE",
"241 411 CURVE SMOOTH",
"288 411 OFFCURVE",
"316 382 OFFCURVE",
"316 334 CURVE SMOOTH",
"316 0 LINE"
);
}
);
width = 756;
},
{
layerId = "59CB0402-E5A9-408B-857A-05EE50EAFC2E";
paths = (
{
closed = 1;
nodes = (
"827 0 LINE",
"827 350 LINE SMOOTH",
"827 441 OFFCURVE",
"789 510 OFFCURVE",
"684 510 CURVE SMOOTH",
"547 510 OFFCURVE",
"507 393 OFFCURVE",
"507 292 CURVE",
"569 292 LINE",
"569 309 OFFCURVE",
"578 319 OFFCURVE",
"594 319 CURVE SMOOTH",
"610 319 OFFCURVE",
"619 309 OFFCURVE",
"619 292 CURVE SMOOTH",
"619 0 LINE"
);
},
{
closed = 1;
nodes = (
"311 0 LINE",
"311 500 LINE",
"103 500 LINE",
"103 0 LINE"
);
},
{
closed = 1;
nodes = (
"569 0 LINE",
"569 350 LINE SMOOTH",
"569 441 OFFCURVE",
"531 510 OFFCURVE",
"426 510 CURVE SMOOTH",
"289 510 OFFCURVE",
"249 393 OFFCURVE",
"249 292 CURVE",
"311 292 LINE",
"311 309 OFFCURVE",
"320 319 OFFCURVE",
"336 319 CURVE SMOOTH",
"352 319 OFFCURVE",
"361 309 OFFCURVE",
"361 292 CURVE SMOOTH",
"361 0 LINE"
);
}
);
width = 923;
},
{
layerId = "262880E7-CFE1-4BDA-902E-E24798F3240A";
paths = (
{
closed = 1;
nodes = (
"682 0 LINE",
"682 350 LINE SMOOTH",
"682 450 OFFCURVE",
"621 511 OFFCURVE",
"527 511 CURVE SMOOTH",
"432 511 OFFCURVE",
"377 450 OFFCURVE",
"377 350 CURVE",
"392 350 LINE",
"392 437 OFFCURVE",
"443 490 OFFCURVE",
"526 490 CURVE SMOOTH",
"609 490 OFFCURVE",
"660 437 OFFCURVE",
"660 350 CURVE SMOOTH",
"660 0 LINE"
);
},
{
closed = 1;
nodes = (
"102 0 LINE",
"102 500 LINE",
"80 500 LINE",
"80 0 LINE"
);
},
{
closed = 1;
nodes = (
"392 0 LINE",
"392 350 LINE",
"392 450 OFFCURVE",
"331 511 OFFCURVE",
"237 511 CURVE SMOOTH",
"142 511 OFFCURVE",
"87 450 OFFCURVE",
"87 350 CURVE",
"102 350 LINE",
"102 437 OFFCURVE",
"153 490 OFFCURVE",
"236 490 CURVE SMOOTH",
"319 490 OFFCURVE",
"370 437 OFFCURVE",
"370 350 CURVE",
"370 0 LINE"
);
}
);
width = 756;
}
);
unicode = 006D;
},
{
color = 1;
glyphname = n;
lastChange = "2016-10-07 07:45:38 +0000";
layers = (
{
layerId = "8841D1CF-9B01-449C-9B26-F87B28F18584";
paths = (
{
closed = 1;
nodes = (
"418 0 LINE",
"418 330 LINE SMOOTH",
"418 442 OFFCURVE",
"373 509 OFFCURVE",
"273 509 CURVE SMOOTH",
"173 509 OFFCURVE",
"121 442 OFFCURVE",
"121 334 CURVE",
"166 334 LINE",
"166 382 OFFCURVE",
"194 411 OFFCURVE",
"241 411 CURVE SMOOTH",
"288 411 OFFCURVE",
"316 382 OFFCURVE",
"316 334 CURVE SMOOTH",
"316 0 LINE"
);
},
{
closed = 1;
nodes = (
"166 0 LINE",
"166 500 LINE",
"64 500 LINE",
"64 0 LINE"
);
}
);
width = 476;
},
{
layerId = "59CB0402-E5A9-408B-857A-05EE50EAFC2E";
paths = (
{
closed = 1;
nodes = (
"569 0 LINE",
"569 350 LINE SMOOTH",
"569 441 OFFCURVE",
"531 510 OFFCURVE",
"426 510 CURVE SMOOTH",
"289 510 OFFCURVE",
"249 393 OFFCURVE",
"249 292 CURVE",
"311 312 LINE",
"311 329 OFFCURVE",
"320 339 OFFCURVE",
"336 339 CURVE SMOOTH",
"352 339 OFFCURVE",
"361 329 OFFCURVE",
"361 312 CURVE SMOOTH",
"361 0 LINE"
);
},
{
closed = 1;
nodes = (
"311 0 LINE",
"311 500 LINE",
"103 500 LINE",
"103 0 LINE"
);
}
);
width = 665;
},
{
layerId = "262880E7-CFE1-4BDA-902E-E24798F3240A";
paths = (
{
closed = 1;
nodes = (
"402 0 LINE",
"402 350 LINE SMOOTH",
"402 450 OFFCURVE",
"341 511 OFFCURVE",
"242 511 CURVE SMOOTH",
"146 511 OFFCURVE",
"87 450 OFFCURVE",
"87 350 CURVE",
"102 350 LINE",
"102 437 OFFCURVE",
"155 490 OFFCURVE",
"241 490 CURVE SMOOTH",
"327 490 OFFCURVE",
"380 437 OFFCURVE",
"380 350 CURVE SMOOTH",
"380 0 LINE"
);
},
{
closed = 1;
nodes = (
"102 0 LINE",
"102 500 LINE",
"80 500 LINE",
"80 0 LINE"
);
}
);
width = 476;
}
);
unicode = 006E;
},
{
color = 1;
glyphname = o;
lastChange = "2016-10-07 07:45:38 +0000";
layers = (
{
layerId = "8841D1CF-9B01-449C-9B26-F87B28F18584";
paths = (
{
closed = 1;
nodes = (
"335 -10 OFFCURVE",
"406 61 OFFCURVE",
"406 166 CURVE SMOOTH",
"406 334 LINE SMOOTH",
"406 439 OFFCURVE",
"335 510 OFFCURVE",
"229 510 CURVE SMOOTH",
"123 510 OFFCURVE",
"52 439 OFFCURVE",
"52 334 CURVE SMOOTH",
"52 166 LINE SMOOTH",
"52 61 OFFCURVE",
"123 -10 OFFCURVE",
"229 -10 CURVE SMOOTH"
);
},
{
closed = 1;
nodes = (
"178 90 OFFCURVE",
"154 115 OFFCURVE",
"154 166 CURVE SMOOTH",
"154 334 LINE SMOOTH",
"154 385 OFFCURVE",
"179 411 OFFCURVE",
"229 411 CURVE SMOOTH",
"279 411 OFFCURVE",
"304 385 OFFCURVE",
"304 334 CURVE SMOOTH",
"304 166 LINE SMOOTH",
"304 115 OFFCURVE",
"280 90 OFFCURVE",
"229 90 CURVE SMOOTH"
);
}
);
width = 458;
},
{
layerId = "59CB0402-E5A9-408B-857A-05EE50EAFC2E";
paths = (
{
closed = 1;
nodes = (
"479 -8 OFFCURVE",
"553 72 OFFCURVE",
"553 247 CURVE",
"553 256 LINE",
"551 430 OFFCURVE",
"477 508 OFFCURVE",
"315 508 CURVE SMOOTH",
"152 508 OFFCURVE",
"79 430 OFFCURVE",
"79 256 CURVE",
"79 247 LINE",
"80 64 OFFCURVE",
"159 -8 OFFCURVE",
"315 -8 CURVE SMOOTH"
);
},
{
closed = 1;
nodes = (
"300 174 OFFCURVE",
"291 185 OFFCURVE",
"291 203 CURVE",
"291 299 LINE",
"291 316 OFFCURVE",
"300 326 OFFCURVE",
"316 326 CURVE SMOOTH",
"332 326 OFFCURVE",
"341 316 OFFCURVE",
"341 299 CURVE",
"341 203 LINE",
"341 185 OFFCURVE",
"332 174 OFFCURVE",
"316 174 CURVE SMOOTH"
);
}
);
width = 632;
},
{
layerId = "262880E7-CFE1-4BDA-902E-E24798F3240A";
paths = (
{
closed = 1;
nodes = (
"328 -11 OFFCURVE",
"390 51 OFFCURVE",
"390 150 CURVE SMOOTH",
"390 350 LINE SMOOTH",
"390 449 OFFCURVE",
"328 511 OFFCURVE",
"229 511 CURVE SMOOTH",
"130 511 OFFCURVE",
"68 449 OFFCURVE",
"68 350 CURVE SMOOTH",
"68 150 LINE SMOOTH",
"68 51 OFFCURVE",
"130 -11 OFFCURVE",
"229 -11 CURVE SMOOTH"
);
},
{
closed = 1;
nodes = (
"142 11 OFFCURVE",
"90 63 OFFCURVE",
"90 150 CURVE SMOOTH",
"90 350 LINE SMOOTH",
"90 437 OFFCURVE",
"142 490 OFFCURVE",
"229 490 CURVE SMOOTH",
"316 490 OFFCURVE",
"368 437 OFFCURVE",
"368 350 CURVE SMOOTH",
"368 150 LINE SMOOTH",
"368 63 OFFCURVE",
"316 11 OFFCURVE",
"229 11 CURVE SMOOTH"
);
}
);
width = 458;
}
);
unicode = 006F;
},
{
color = 1;
glyphname = r;
lastChange = "2016-10-07 07:45:37 +0000";
layers = (
{
layerId = "8841D1CF-9B01-449C-9B26-F87B28F18584";
paths = (
{
closed = 1;
nodes = (
"155 1 LINE",
"155 501 LINE",
"54 501 LINE",
"54 1 LINE"
);
},
{
closed = 1;
nodes = (
"155 327 LINE",
"155 381 OFFCURVE",
"181 414 OFFCURVE",
"233 414 CURVE SMOOTH",
"259 414 OFFCURVE",
"273 406 OFFCURVE",
"275 401 CURVE",
"290 490 LINE",
"286 500 OFFCURVE",
"262 510 OFFCURVE",
"230 510 CURVE SMOOTH",
"132 510 OFFCURVE",
"118 414 OFFCURVE",
"118 327 CURVE"
);
}
);
width = 320;
},
{
layerId = "59CB0402-E5A9-408B-857A-05EE50EAFC2E";
paths = (
{
closed = 1;
nodes = (
"311 0 LINE",
"311 500 LINE",
"103 500 LINE",
"103 0 LINE"
);
},
{
closed = 1;
nodes = (
"311 268 LINE",
"311 302 OFFCURVE",
"344 317 OFFCURVE",
"370 317 CURVE SMOOTH",
"387 317 OFFCURVE",
"420 310 OFFCURVE",
"424 301 CURVE",
"465 464 LINE",
"462 486 OFFCURVE",
"441 505 OFFCURVE",
"400 505 CURVE SMOOTH",
"296 505 OFFCURVE",
"249 382 OFFCURVE",
"249 268 CURVE"
);
}
);
width = 531;
},
{
layerId = "262880E7-CFE1-4BDA-902E-E24798F3240A";
paths = (
{
closed = 1;
nodes = (
"102 0 LINE",
"102 500 LINE",
"80 500 LINE",
"80 0 LINE"
);
},
{
closed = 1;
nodes = (
"102 340 LINE",
"102 427 OFFCURVE",
"152 492 OFFCURVE",
"234 492 CURVE SMOOTH",
"244 492 OFFCURVE",
"261 488 OFFCURVE",
"270 484 CURVE",
"287 497 LINE",
"273 505 OFFCURVE",
"253 511 OFFCURVE",
"234 511 CURVE SMOOTH",
"139 511 OFFCURVE",
"85 438 OFFCURVE",
"85 340 CURVE"
);
}
);
width = 320;
}
);
unicode = 0072;
},
{
color = 1;
glyphname = s;
lastChange = "2016-10-07 07:45:37 +0000";
layers = (
{
layerId = "8841D1CF-9B01-449C-9B26-F87B28F18584";
paths = (
{
closed = 1;
nodes = (
"319 -10 OFFCURVE",
"393 51 OFFCURVE",
"393 141 CURVE SMOOTH",
"393 243 OFFCURVE",
"294 277 OFFCURVE",
"227 301 CURVE SMOOTH",
"156 324 OFFCURVE",
"140 336 OFFCURVE",
"140 355 CURVE SMOOTH",
"140 389 OFFCURVE",
"167 411 OFFCURVE",
"215 411 CURVE SMOOTH",
"263 411 OFFCURVE",
"290 389 OFFCURVE",
"290 355 CURVE SMOOTH",
"290 334 LINE",
"392 334 LINE",
"392 355 LINE SMOOTH",
"392 447 OFFCURVE",
"319 510 OFFCURVE",
"215 510 CURVE SMOOTH",
"111 510 OFFCURVE",
"38 447 OFFCURVE",
"38 355 CURVE SMOOTH",
"38 260 OFFCURVE",
"133 227 OFFCURVE",
"197 204 CURVE SMOOTH",
"274 178 OFFCURVE",
"292 165 OFFCURVE",
"292 141 CURVE SMOOTH",
"292 111 OFFCURVE",
"263 90 OFFCURVE",
"212 90 CURVE SMOOTH",
"164 90 OFFCURVE",
"138 110 OFFCURVE",
"138 141 CURVE SMOOTH",
"138 162 LINE",
"37 162 LINE",
"37 141 LINE SMOOTH",
"37 52 OFFCURVE",
"109 -8 OFFCURVE",
"212 -10 CURVE SMOOTH"
);
}
);
width = 430;
},
{
layerId = "59CB0402-E5A9-408B-857A-05EE50EAFC2E";
paths = (
{
closed = 1;
nodes = (
"421 -10 OFFCURVE",
"496 59 OFFCURVE",
"496 150 CURVE SMOOTH",
"496 212 OFFCURVE",
"462 267 OFFCURVE",
"378 294 CURVE SMOOTH",
"331 309 OFFCURVE",
"261 318 OFFCURVE",
"261 347 CURVE SMOOTH",
"261 355 OFFCURVE",
"267 369 OFFCURVE",
"283 369 CURVE SMOOTH",
"296 369 OFFCURVE",
"308 361 OFFCURVE",
"310 343 CURVE",
"310 334 LINE",
"488 334 LINE",
"488 343 LINE",
"485 440 OFFCURVE",
"411 510 OFFCURVE",
"282 510 CURVE SMOOTH",
"152 510 OFFCURVE",
"78 440 OFFCURVE",
"78 353 CURVE SMOOTH",
"78 289 OFFCURVE",
"119 236 OFFCURVE",
"198 210 CURVE SMOOTH",
"244 195 OFFCURVE",
"306 186 OFFCURVE",
"306 152 CURVE SMOOTH",
"306 138 OFFCURVE",
"296 129 OFFCURVE",
"283 129 CURVE SMOOTH",
"269 129 OFFCURVE",
"260 138 OFFCURVE",
"260 152 CURVE SMOOTH",
"260 168 LINE",
"77 168 LINE",
"77 158 LINE",
"77 64 OFFCURVE",
"157 -10 OFFCURVE",
"291 -10 CURVE SMOOTH"
);
}
);
width = 571;
},
{
layerId = "262880E7-CFE1-4BDA-902E-E24798F3240A";
paths = (
{
closed = 1;
nodes = (
"312 -11 OFFCURVE",
"378 41 OFFCURVE",
"378 120 CURVE SMOOTH",
"378 208 OFFCURVE",
"294 237 OFFCURVE",
"214 265 CURVE SMOOTH",
"143 289 OFFCURVE",
"76 312 OFFCURVE",
"76 375 CURVE SMOOTH",
"76 444 OFFCURVE",
"132 490 OFFCURVE",
"215 490 CURVE SMOOTH",
"298 490 OFFCURVE",
"354 444 OFFCURVE",
"354 375 CURVE SMOOTH",
"354 374 LINE",
"376 374 LINE",
"376 375 LINE SMOOTH",
"376 457 OFFCURVE",
"312 511 OFFCURVE",
"215 511 CURVE SMOOTH",
"118 511 OFFCURVE",
"54 457 OFFCURVE",
"54 375 CURVE SMOOTH",
"54 295 OFFCURVE",
"133 268 OFFCURVE",
"210 241 CURVE SMOOTH",
"283 216 OFFCURVE",
"356 191 OFFCURVE",
"356 120 CURVE SMOOTH",
"356 55 OFFCURVE",
"298 11 OFFCURVE",
"212 11 CURVE SMOOTH",
"129 10 OFFCURVE",
"74 54 OFFCURVE",
"74 120 CURVE SMOOTH",
"74 121 LINE",
"52 121 LINE",
"52 120 LINE SMOOTH",
"52 42 OFFCURVE",
"116 -10 OFFCURVE",
"212 -11 CURVE SMOOTH"
);
}
);
width = 430;
}
);
unicode = 0073;
},
{
color = 1;
glyphname = t;
lastChange = "2016-10-07 07:45:38 +0000";
layers = (
{
layerId = "8841D1CF-9B01-449C-9B26-F87B28F18584";
paths = (
{
closed = 1;
nodes = (
"228 94 LINE",
"190 90 OFFCURVE",
"165 96 OFFCURVE",
"165 164 CURVE SMOOTH",
"165 690 LINE",
"63 690 LINE",
"63 134 LINE SMOOTH",
"63 49 OFFCURVE",
"93 -32 OFFCURVE",
"228 3 CURVE"
);
},
{
closed = 1;
nodes = (
"250 402 LINE",
"250 500 LINE",
"10 500 LINE",
"10 402 LINE"
);
}
);
width = 274;
},
{
layerId = "59CB0402-E5A9-408B-857A-05EE50EAFC2E";
paths = (
{
closed = 1;
nodes = (
"370 171 LINE",
"340 166 OFFCURVE",
"319 160 OFFCURVE",
"319 192 CURVE",
"319 700 LINE",
"111 700 LINE",
"111 163 LINE",
"110 2 OFFCURVE",
"188 -24 OFFCURVE",
"362 1 CURVE"
);
},
{
closed = 1;
nodes = (
"385 326 LINE",
"385 500 LINE",
"75 500 LINE",
"75 326 LINE"
);
}
);
width = 461;
},
{
layerId = "262880E7-CFE1-4BDA-902E-E24798F3240A";
paths = (
{
closed = 1;
nodes = (
"235 21 LINE",
"164 21 OFFCURVE",
"121 72 OFFCURVE",
"121 158 CURVE SMOOTH",
"121 700 LINE",
"99 700 LINE",
"99 158 LINE SMOOTH",
"99 58 OFFCURVE",
"151 -1 OFFCURVE",
"235 -1 CURVE"
);
},
{
closed = 1;
nodes = (
"235 479 LINE",
"235 500 LINE",
"35 500 LINE",
"35 479 LINE"
);
}
);
width = 274;
}
);
unicode = 0074;
},
{
color = 1;
glyphname = u;
lastChange = "2016-10-07 07:45:38 +0000";
layers = (
{
layerId = "8841D1CF-9B01-449C-9B26-F87B28F18584";
paths = (
{
closed = 1;
nodes = (
"309 -9 OFFCURVE",
"361 58 OFFCURVE",
"361 166 CURVE",
"316 166 LINE",
"316 118 OFFCURVE",
"288 89 OFFCURVE",
"241 89 CURVE SMOOTH",
"194 89 OFFCURVE",
"166 118 OFFCURVE",
"166 166 CURVE SMOOTH",
"166 500 LINE",
"64 500 LINE",
"64 170 LINE SMOOTH",
"64 58 OFFCURVE",
"109 -9 OFFCURVE",
"209 -9 CURVE SMOOTH"
);
},
{
closed = 1;
nodes = (
"418 0 LINE",
"418 500 LINE",
"316 500 LINE",
"316 0 LINE"
);
}
);
width = 476;
},
{
layerId = "59CB0402-E5A9-408B-857A-05EE50EAFC2E";
paths = (
{
closed = 1;
nodes = (
"384 -10 OFFCURVE",
"418 108 OFFCURVE",
"418 208 CURVE",
"356 188 LINE",
"356 171 OFFCURVE",
"347 161 OFFCURVE",
"331 161 CURVE SMOOTH",
"315 161 OFFCURVE",
"306 171 OFFCURVE",
"306 188 CURVE SMOOTH",
"306 500 LINE",
"98 500 LINE",
"98 150 LINE SMOOTH",
"98 53 OFFCURVE",
"119 -10 OFFCURVE",
"231 -10 CURVE SMOOTH"
);
},
{
closed = 1;
nodes = (
"564 0 LINE",
"564 500 LINE",
"356 500 LINE",
"356 0 LINE"
);
}
);
width = 667;
},
{
layerId = "262880E7-CFE1-4BDA-902E-E24798F3240A";
paths = (
{
closed = 1;
nodes = (
"335 -11 OFFCURVE",
"391 50 OFFCURVE",
"391 150 CURVE",
"374 150 LINE",
"374 63 OFFCURVE",
"321 10 OFFCURVE",
"235 10 CURVE SMOOTH",
"149 10 OFFCURVE",
"96 63 OFFCURVE",
"96 150 CURVE SMOOTH",
"96 500 LINE",
"74 500 LINE",
"74 150 LINE SMOOTH",
"74 50 OFFCURVE",
"135 -11 OFFCURVE",
"235 -11 CURVE SMOOTH"
);
},
{
closed = 1;
nodes = (
"396 0 LINE",
"396 500 LINE",
"374 500 LINE",
"374 0 LINE"
);
}
);
width = 476;
}
);
unicode = 0075;
},
{
color = 1;
glyphname = v;
lastChange = "2016-10-07 07:45:37 +0000";
layers = (
{
layerId = "8841D1CF-9B01-449C-9B26-F87B28F18584";
paths = (
{
closed = 1;
nodes = (
"254 0 LINE",
"419 500 LINE",
"314 500 LINE",
"215 200 LINE",
"116 500 LINE",
"11 500 LINE",
"176 0 LINE"
);
}
);
width = 430;
},
{
layerId = "59CB0402-E5A9-408B-857A-05EE50EAFC2E";
paths = (
{
closed = 1;
nodes = (
"248 0 LINE",
"413 500 LINE",
"391 500 LINE",
"237 35 LINE",
"83 500 LINE",
"61 500 LINE",
"226 0 LINE"
);
}
);
width = 474;
},
{
layerId = "262880E7-CFE1-4BDA-902E-E24798F3240A";
paths = (
{
closed = 1;
nodes = (
"226 0 LINE",
"391 500 LINE",
"369 500 LINE",
"215 35 LINE",
"61 500 LINE",
"39 500 LINE",
"204 0 LINE"
);
}
);
width = 430;
}
);
unicode = 0076;
},
{
color = 1;
glyphname = w;
lastChange = "2016-10-07 07:45:37 +0000";
layers = (
{
layerId = "8841D1CF-9B01-449C-9B26-F87B28F18584";
paths = (
{
closed = 1;
nodes = (
"248 0 LINE",
"321 267 LINE",
"394 0 LINE",
"475 0 LINE",
"610 500 LINE",
"506 500 LINE",
"435 233 LINE",
"362 500 LINE",
"280 500 LINE",
"207 233 LINE",
"136 500 LINE",
"32 500 LINE",
"167 0 LINE"
);
}
);
width = 642;
},
{
layerId = "59CB0402-E5A9-408B-857A-05EE50EAFC2E";
paths = (
{
closed = 1;
nodes = (
"220 0 LINE",
"344 458 LINE",
"468 0 LINE",
"490 0 LINE",
"625 500 LINE",
"603 500 LINE",
"479 42 LINE",
"355 500 LINE",
"333 500 LINE",
"209 42 LINE",
"85 500 LINE",
"63 500 LINE",
"198 0 LINE"
);
}
);
width = 688;
},
{
layerId = "262880E7-CFE1-4BDA-902E-E24798F3240A";
paths = (
{
closed = 1;
nodes = (
"197 0 LINE",
"321 458 LINE",
"445 0 LINE",
"467 0 LINE",
"602 500 LINE",
"580 500 LINE",
"456 42 LINE",
"332 500 LINE",
"310 500 LINE",
"186 42 LINE",
"62 500 LINE",
"40 500 LINE",
"175 0 LINE"
);
}
);
width = 642;
}
);
unicode = 0077;
},
{
color = 1;
glyphname = x;
lastChange = "2016-10-07 05:32:08 +0000";
layers = (
{
layerId = "8841D1CF-9B01-449C-9B26-F87B28F18584";
paths = (
{
closed = 1;
nodes = (
"322 500 LINE",
"438 500 LINE",
"108 0 LINE",
"-8 0 LINE"
);
},
{
closed = 1;
nodes = (
"-8 500 LINE",
"108 500 LINE",
"438 0 LINE",
"322 0 LINE"
);
}
);
width = 430;
},
{
layerId = "59CB0402-E5A9-408B-857A-05EE50EAFC2E";
width = 574;
},
{
layerId = "262880E7-CFE1-4BDA-902E-E24798F3240A";
paths = (
{
closed = 1;
nodes = (
"369 500 LINE",
"391 500 LINE",
"61 0 LINE",
"39 0 LINE"
);
},
{
closed = 1;
nodes = (
"39 500 LINE",
"61 500 LINE",
"391 0 LINE",
"369 0 LINE"
);
}
);
width = 430;
}
);
unicode = 0078;
},
{
color = 1;
glyphname = y;
lastChange = "2016-10-07 07:45:38 +0000";
layers = (
{
layerId = "8841D1CF-9B01-449C-9B26-F87B28F18584";
paths = (
{
closed = 1;
nodes = (
"167 -201 OFFCURVE",
"211 -159 OFFCURVE",
"245 -57 CURVE",
"421 477 LINE",
"316 477 LINE",
"149 -27 LINE SMOOTH",
"128 -91 OFFCURVE",
"116 -102 OFFCURVE",
"91 -102 CURVE",
"91 -201 LINE"
);
},
{
closed = 1;
nodes = (
"261 41 LINE",
"116 477 LINE",
"11 477 LINE",
"209 -122 LINE"
);
}
);
width = 432;
},
{
layerId = "59CB0402-E5A9-408B-857A-05EE50EAFC2E";
paths = (
{
closed = 1;
nodes = (
"156 -211 OFFCURVE",
"191 -174 OFFCURVE",
"224 -73 CURVE SMOOTH",
"237 -34 LINE",
"237 -35 LINE",
"414 500 LINE",
"392 500 LINE",
"237 35 LINE",
"226 -1 LINE",
"204 -67 LINE SMOOTH",
"173 -160 OFFCURVE",
"144 -190 OFFCURVE",
"88 -190 CURVE",
"88 -211 LINE"
);
},
{
closed = 1;
nodes = (
"239 28 LINE",
"82 500 LINE",
"60 500 LINE",
"228 -7 LINE"
);
}
);
width = 473;
},
{
layerId = "262880E7-CFE1-4BDA-902E-E24798F3240A";
paths = (
{
closed = 1;
nodes = (
"135 -211 OFFCURVE",
"170 -174 OFFCURVE",
"203 -73 CURVE SMOOTH",
"216 -34 LINE",
"216 -35 LINE",
"393 500 LINE",
"371 500 LINE",
"216 35 LINE",
"205 -1 LINE",
"183 -67 LINE SMOOTH",
"152 -160 OFFCURVE",
"123 -190 OFFCURVE",
"67 -190 CURVE",
"67 -211 LINE"
);
},
{
closed = 1;
nodes = (
"218 28 LINE",
"61 500 LINE",
"39 500 LINE",
"207 -7 LINE"
);
}
);
width = 432;
}
);
unicode = 0079;
},
{
color = 1;
glyphname = z;
lastChange = "2016-10-07 07:45:38 +0000";
layers = (
{
layerId = "8841D1CF-9B01-449C-9B26-F87B28F18584";
paths = (
{
closed = 1;
nodes = (
"373 0 LINE",
"373 99 LINE",
"194 99 LINE",
"387 500 LINE",
"39 500 LINE",
"39 402 LINE",
"227 402 LINE",
"35 0 LINE"
);
}
);
width = 412;
},
{
layerId = "59CB0402-E5A9-408B-857A-05EE50EAFC2E";
paths = (
{
closed = 1;
nodes = (
"379 0 LINE",
"379 22 LINE",
"98 22 LINE",
"398 500 LINE",
"79 500 LINE",
"79 479 LINE",
"360 479 LINE",
"60 0 LINE"
);
}
);
width = 458;
},
{
layerId = "262880E7-CFE1-4BDA-902E-E24798F3240A";
paths = (
{
closed = 1;
nodes = (
"356 0 LINE",
"356 22 LINE",
"75 22 LINE",
"375 500 LINE",
"56 500 LINE",
"56 479 LINE",
"337 479 LINE",
"37 0 LINE"
);
}
);
width = 412;
}
);
unicode = 007A;
},
{
color = 1;
glyphname = period;
lastChange = "2016-10-07 07:45:38 +0000";
layers = (
{
layerId = "8841D1CF-9B01-449C-9B26-F87B28F18584";
paths = (
{
closed = 1;
nodes = (
"189 -37 OFFCURVE",
"224 -2 OFFCURVE",
"224 41 CURVE SMOOTH",
"224 83 OFFCURVE",
"188 118 OFFCURVE",
"145 118 CURVE SMOOTH",
"102 118 OFFCURVE",
"66 83 OFFCURVE",
"66 41 CURVE SMOOTH",
"66 -3 OFFCURVE",
"101 -37 OFFCURVE",
"145 -37 CURVE SMOOTH"
);
},
{
closed = 1;
nodes = (
"144 34 OFFCURVE",
"138 40 OFFCURVE",
"138 41 CURVE SMOOTH",
"138 42 OFFCURVE",
"144 47 OFFCURVE",
"145 47 CURVE SMOOTH",
"146 47 OFFCURVE",
"152 42 OFFCURVE",
"152 41 CURVE SMOOTH",
"152 40 OFFCURVE",
"146 34 OFFCURVE",
"145 34 CURVE SMOOTH"
);
}
);
width = 289;
},
{
layerId = "59CB0402-E5A9-408B-857A-05EE50EAFC2E";
paths = (
{
closed = 1;
nodes = (
"287 -6 OFFCURVE",
"336 40 OFFCURVE",
"336 99 CURVE",
"336 156 OFFCURVE",
"287 202 OFFCURVE",
"230 202 CURVE SMOOTH",
"173 202 OFFCURVE",
"124 156 OFFCURVE",
"124 99 CURVE SMOOTH",
"124 40 OFFCURVE",
"171 -6 OFFCURVE",
"230 -6 CURVE SMOOTH"
);
}
);
width = 460;
},
{
layerId = "262880E7-CFE1-4BDA-902E-E24798F3240A";
paths = (
{
closed = 1;
nodes = (
"167 0 OFFCURVE",
"186 18 OFFCURVE",
"186 41 CURVE SMOOTH",
"186 63 OFFCURVE",
"167 81 OFFCURVE",
"145 81 CURVE SMOOTH",
"123 81 OFFCURVE",
"104 63 OFFCURVE",
"104 41 CURVE SMOOTH",
"104 18 OFFCURVE",
"122 0 OFFCURVE",
"145 0 CURVE SMOOTH"
);
}
);
width = 289;
}
);
unicode = 002E;
},
